<svg width="100%" height="100%" viewBox="0 0 408 136" fill="none" xmlns="http://www.w3.org/2000/svg">
<path d="M402.606 0.0401958C403.42 -0.160343 404.22 0.326158 404.394 1.12684L407.229 14.1747C407.403 14.9753 406.885 15.787 406.072 15.9875C405.259 16.1881 404.459 15.7015 404.285 14.9009L401.765 3.30281L389.988 6.20769C389.175 6.40822 388.375 5.92171 388.201 5.12103C388.026 4.32036 388.545 3.50871 389.358 3.30817L402.606 0.0401958ZM1.64371 78.9152C72.4233 122.28 148.069 140.899 218.144 129.631C288.175 118.371 352.825 77.2331 401.658 0.721567L404.185 2.25833C354.918 79.4513 289.518 121.166 218.524 132.582C147.574 143.99 71.2194 125.109 -0.00091016 81.4739L1.64371 78.9152Z" fill="currentColor"/>
</svg>
