<svg width="100%" height="100%" viewBox="0 0 216 26" fill="none" xmlns="http://www.w3.org/2000/svg">
<path d="M34.7818 25.3184L31.1155 18.6639H30.086V25.3184H25.792V7.69039H32.9989C34.3884 7.69039 35.5686 7.93313 36.5395 8.41861C37.5273 8.90409 38.2638 9.57372 38.7493 10.4275C39.2348 11.2645 39.4776 12.202 39.4776 13.2399C39.4776 14.4118 39.1427 15.4581 38.4731 16.3788C37.8202 17.2996 36.8493 17.9525 35.5602 18.3375L39.6282 25.3184H34.7818ZM30.086 15.6255H32.7478C33.5346 15.6255 34.1205 15.433 34.5055 15.0479C34.9073 14.6629 35.1082 14.1188 35.1082 13.4157C35.1082 12.7461 34.9073 12.2188 34.5055 11.8337C34.1205 11.4487 33.5346 11.2562 32.7478 11.2562H30.086V15.6255Z" fill="#434C66"/>
<path d="M55.3815 18.0864C55.3815 18.4882 55.3564 18.9067 55.3062 19.3419H45.5882C45.6551 20.2125 45.9314 20.8821 46.4168 21.3508C46.9191 21.8028 47.5301 22.0288 48.25 22.0288C49.3214 22.0288 50.0663 21.5768 50.4848 20.6728H55.0551C54.8207 21.5936 54.3938 22.4222 53.7744 23.1588C53.1717 23.8954 52.41 24.473 51.4893 24.8915C50.5686 25.31 49.539 25.5193 48.4006 25.5193C47.0279 25.5193 45.8058 25.2263 44.7344 24.6404C43.663 24.0545 42.826 23.2174 42.2233 22.1293C41.6206 21.0411 41.3193 19.7688 41.3193 18.3124C41.3193 16.8559 41.6123 15.5837 42.1982 14.4955C42.8008 13.4074 43.6379 12.5703 44.7093 11.9844C45.7807 11.3985 47.0111 11.1055 48.4006 11.1055C49.7566 11.1055 50.962 11.3901 52.0166 11.9593C53.0713 12.5285 53.8916 13.3404 54.4775 14.3951C55.0802 15.4497 55.3815 16.6802 55.3815 18.0864ZM50.9871 16.9564C50.9871 16.2198 50.736 15.6339 50.2337 15.1986C49.7315 14.7634 49.1037 14.5457 48.3504 14.5457C47.6306 14.5457 47.0195 14.755 46.5173 15.1735C46.0318 15.592 45.7305 16.1863 45.6133 16.9564H50.9871Z" fill="#434C66"/>
<path d="M63.347 25.5193C62.125 25.5193 61.0368 25.31 60.0826 24.8915C59.1284 24.473 58.375 23.9038 57.8226 23.1839C57.2701 22.4474 56.9604 21.6271 56.8935 20.7231H61.1373C61.1875 21.2085 61.4135 21.6019 61.8153 21.9033C62.217 22.2046 62.7109 22.3553 63.2968 22.3553C63.8325 22.3553 64.2427 22.2548 64.5273 22.0539C64.8286 21.8363 64.9793 21.5601 64.9793 21.2253C64.9793 20.8235 64.77 20.5305 64.3515 20.3464C63.933 20.1455 63.255 19.9279 62.3175 19.6935C61.313 19.4591 60.476 19.2164 59.8064 18.9653C59.1367 18.6974 58.5592 18.2873 58.0737 17.7348C57.5882 17.1657 57.3455 16.4039 57.3455 15.4497C57.3455 14.6462 57.5631 13.9179 57.9984 13.2651C58.4504 12.5954 59.1033 12.0681 59.957 11.6831C60.8276 11.298 61.8571 11.1055 63.0457 11.1055C64.8035 11.1055 66.1846 11.5408 67.189 12.4113C68.2102 13.2818 68.7962 14.4369 68.9468 15.8766H64.9793C64.9123 15.3911 64.6947 15.0061 64.3264 14.7215C63.9748 14.4369 63.5061 14.2946 62.9201 14.2946C62.4179 14.2946 62.0329 14.3951 61.765 14.5959C61.4972 14.7801 61.3633 15.0396 61.3633 15.3744C61.3633 15.7762 61.5725 16.0775 61.991 16.2784C62.4263 16.4793 63.0959 16.6802 63.9999 16.8811C65.0379 17.1489 65.8833 17.4168 66.5361 17.6846C67.189 17.9357 67.7582 18.3542 68.2437 18.9402C68.7459 19.5094 69.0054 20.2794 69.0222 21.2504C69.0222 22.0707 68.7878 22.8073 68.319 23.4602C67.867 24.0963 67.2058 24.5985 66.3353 24.9668C65.4815 25.3351 64.4854 25.5193 63.347 25.5193Z" fill="#434C66"/>
<path d="M85.4854 11.3064V25.3184H81.1914V23.4099C80.7562 24.0294 80.1619 24.5316 79.4085 24.9166C78.6719 25.2849 77.8517 25.4691 76.9477 25.4691C75.8762 25.4691 74.9304 25.2347 74.1101 24.7659C73.2898 24.2805 72.6536 23.5857 72.2016 22.6817C71.7496 21.7777 71.5236 20.7147 71.5236 19.4926V11.3064H75.7925V18.9151C75.7925 19.8525 76.0353 20.5808 76.5208 21.0997C77.0062 21.6187 77.6591 21.8782 78.4794 21.8782C79.3165 21.8782 79.9777 21.6187 80.4632 21.0997C80.9487 20.5808 81.1914 19.8525 81.1914 18.9151V11.3064H85.4854Z" fill="#434C66"/>
<path d="M106.449 11.1557C108.19 11.1557 109.571 11.6831 110.592 12.7377C111.63 13.7924 112.149 15.2572 112.149 17.1322V25.3184H107.88V17.7097C107.88 16.8057 107.637 16.111 107.152 15.6255C106.683 15.1233 106.03 14.8722 105.193 14.8722C104.356 14.8722 103.695 15.1233 103.21 15.6255C102.741 16.111 102.506 16.8057 102.506 17.7097V25.3184H98.2376V17.7097C98.2376 16.8057 97.9948 16.111 97.5093 15.6255C97.0406 15.1233 96.3877 14.8722 95.5507 14.8722C94.7136 14.8722 94.0524 15.1233 93.5669 15.6255C93.0981 16.111 92.8638 16.8057 92.8638 17.7097V25.3184H88.5698V11.3064H92.8638V13.0642C93.299 12.4782 93.8682 12.0179 94.5713 11.6831C95.2744 11.3315 96.0696 11.1557 96.9569 11.1557C98.0116 11.1557 98.949 11.3817 99.7693 11.8337C100.606 12.2857 101.259 12.9302 101.728 13.7673C102.213 12.9972 102.875 12.3694 103.712 11.8839C104.549 11.3985 105.461 11.1557 106.449 11.1557Z" fill="#434C66"/>
<path d="M128.361 18.0864C128.361 18.4882 128.336 18.9067 128.285 19.3419H118.567C118.634 20.2125 118.911 20.8821 119.396 21.3508C119.898 21.8028 120.509 22.0288 121.229 22.0288C122.301 22.0288 123.046 21.5768 123.464 20.6728H128.034C127.8 21.5936 127.373 22.4222 126.754 23.1588C126.151 23.8954 125.389 24.473 124.468 24.8915C123.548 25.31 122.518 25.5193 121.38 25.5193C120.007 25.5193 118.785 25.2263 117.714 24.6404C116.642 24.0545 115.805 23.2174 115.202 22.1293C114.6 21.0411 114.298 19.7688 114.298 18.3124C114.298 16.8559 114.591 15.5837 115.177 14.4955C115.78 13.4074 116.617 12.5703 117.688 11.9844C118.76 11.3985 119.99 11.1055 121.38 11.1055C122.736 11.1055 123.941 11.3901 124.996 11.9593C126.05 12.5285 126.871 13.3404 127.457 14.3951C128.059 15.4497 128.361 16.6802 128.361 18.0864ZM123.966 16.9564C123.966 16.2198 123.715 15.6339 123.213 15.1986C122.711 14.7634 122.083 14.5457 121.33 14.5457C120.61 14.5457 119.999 14.755 119.496 15.1735C119.011 15.592 118.71 16.1863 118.592 16.9564H123.966Z" fill="#434C66"/>
<path d="M142.728 13.2651C142.41 12.6791 141.949 12.2355 141.347 11.9342C140.761 11.6161 140.066 11.4571 139.262 11.4571C137.873 11.4571 136.76 11.9174 135.923 12.8382C135.086 13.7422 134.667 14.9559 134.667 16.4793C134.667 18.1031 135.102 19.3754 135.973 20.2962C136.86 21.2002 138.074 21.6522 139.614 21.6522C140.669 21.6522 141.556 21.3843 142.276 20.8486C143.012 20.3129 143.548 19.5428 143.883 18.5384H138.434V15.3744H147.775V19.3671C147.457 20.4385 146.913 21.4345 146.143 22.3553C145.389 23.276 144.427 24.021 143.255 24.5902C142.083 25.1594 140.761 25.444 139.287 25.444C137.546 25.444 135.99 25.0673 134.617 24.3139C133.261 23.5439 132.198 22.4808 131.428 21.1248C130.674 19.7688 130.298 18.2203 130.298 16.4793C130.298 14.7382 130.674 13.1897 131.428 11.8337C132.198 10.461 133.261 9.39795 134.617 8.64461C135.973 7.87454 137.521 7.4895 139.262 7.4895C141.372 7.4895 143.146 8.00009 144.586 9.02128C146.042 10.0425 147.005 11.4571 147.474 13.2651H142.728Z" fill="#DBAE2D"/>
<path d="M163.362 18.0864C163.362 18.4882 163.337 18.9067 163.287 19.3419H153.569C153.636 20.2125 153.912 20.8821 154.397 21.3508C154.899 21.8028 155.511 22.0288 156.23 22.0288C157.302 22.0288 158.047 21.5768 158.465 20.6728H163.035C162.801 21.5936 162.374 22.4222 161.755 23.1588C161.152 23.8954 160.39 24.473 159.47 24.8915C158.549 25.31 157.519 25.5193 156.381 25.5193C155.008 25.5193 153.786 25.2263 152.715 24.6404C151.643 24.0545 150.806 23.2174 150.204 22.1293C149.601 21.0411 149.3 19.7688 149.3 18.3124C149.3 16.8559 149.593 15.5837 150.179 14.4955C150.781 13.4074 151.618 12.5703 152.69 11.9844C153.761 11.3985 154.992 11.1055 156.381 11.1055C157.737 11.1055 158.942 11.3901 159.997 11.9593C161.052 12.5285 161.872 13.3404 162.458 14.3951C163.061 15.4497 163.362 16.6802 163.362 18.0864ZM158.967 16.9564C158.967 16.2198 158.716 15.6339 158.214 15.1986C157.712 14.7634 157.084 14.5457 156.331 14.5457C155.611 14.5457 155 14.755 154.498 15.1735C154.012 15.592 153.711 16.1863 153.594 16.9564H158.967Z" fill="#DBAE2D"/>
<path d="M183.506 11.1557C185.247 11.1557 186.628 11.6831 187.65 12.7377C188.688 13.7924 189.207 15.2572 189.207 17.1322V25.3184H184.938V17.7097C184.938 16.8057 184.695 16.111 184.209 15.6255C183.741 15.1233 183.088 14.8722 182.251 14.8722C181.414 14.8722 180.753 15.1233 180.267 15.6255C179.798 16.111 179.564 16.8057 179.564 17.7097V25.3184H175.295V17.7097C175.295 16.8057 175.052 16.111 174.567 15.6255C174.098 15.1233 173.445 14.8722 172.608 14.8722C171.771 14.8722 171.11 15.1233 170.624 15.6255C170.156 16.111 169.921 16.8057 169.921 17.7097V25.3184H165.627V11.3064H169.921V13.0642C170.356 12.4782 170.926 12.0179 171.629 11.6831C172.332 11.3315 173.127 11.1557 174.014 11.1557C175.069 11.1557 176.006 11.3817 176.827 11.8337C177.664 12.2857 178.317 12.9302 178.785 13.7673C179.271 12.9972 179.932 12.3694 180.769 11.8839C181.606 11.3985 182.519 11.1557 183.506 11.1557Z" fill="#DBAE2D"/>
<path d="M210.089 11.1557C211.83 11.1557 213.211 11.6831 214.232 12.7377C215.27 13.7924 215.789 15.2572 215.789 17.1322V25.3184H211.52V17.7097C211.52 16.8057 211.277 16.111 210.792 15.6255C210.323 15.1233 209.67 14.8722 208.833 14.8722C207.996 14.8722 207.335 15.1233 206.849 15.6255C206.381 16.111 206.146 16.8057 206.146 17.7097V25.3184H201.877V17.7097C201.877 16.8057 201.635 16.111 201.149 15.6255C200.681 15.1233 200.028 14.8722 199.191 14.8722C198.354 14.8722 197.692 15.1233 197.207 15.6255C196.738 16.111 196.504 16.8057 196.504 17.7097V25.3184H192.21V11.3064H196.504V13.0642C196.939 12.4782 197.508 12.0179 198.211 11.6831C198.914 11.3315 199.71 11.1557 200.597 11.1557C201.651 11.1557 202.589 11.3817 203.409 11.8337C204.246 12.2857 204.899 12.9302 205.368 13.7673C205.853 12.9972 206.515 12.3694 207.352 11.8839C208.189 11.3985 209.101 11.1557 210.089 11.1557Z" fill="#DBAE2D"/>
<path d="M0.211426 2C0.211426 0.895433 1.10686 0 2.21143 0L16.0005 0L21.2347 4.57227V23.4031C21.2347 24.5077 20.3393 25.4031 19.2347 25.4031H2.21143C1.10686 25.4031 0.211426 24.5077 0.211426 23.4031V2Z" fill="#434C66"/>
<mask id="mask0_564_1166" style="mask-type:alpha" maskUnits="userSpaceOnUse" x="0" y="8" width="16" height="18">
<path d="M9.88683 25.5194L5.941 18.9059H4.83292V25.5194H0.211426V8H7.96797C9.46342 8 10.7337 8.24124 11.7787 8.72373C12.8417 9.20622 13.6345 9.87173 14.157 10.7202C14.6795 11.5521 14.9407 12.4838 14.9407 13.5154C14.9407 14.68 14.5804 15.7198 13.8597 16.6349C13.157 17.55 12.112 18.1988 10.7246 18.5815L15.1029 25.5194H9.88683ZM4.83292 15.8862H7.6977C8.54453 15.8862 9.17514 15.6949 9.58954 15.3122C10.022 14.9296 10.2382 14.3888 10.2382 13.6901C10.2382 13.0246 10.022 12.5005 9.58954 12.1178C9.17514 11.7351 8.54453 11.5438 7.6977 11.5438H4.83292V15.8862Z" fill="white"/>
</mask>
<g mask="url(#mask0_564_1166)">
<path d="M0.211426 5.40308H19.2114V25.4031H2.21143C1.10686 25.4031 0.211426 24.5076 0.211426 23.4031V5.40308Z" fill="white"/>
</g>
<path d="M16.0737 0.0253906L21.2505 4.54102L17.0908 5.22013C16.5578 5.30716 16.0737 4.89573 16.0737 4.35561V0.0253906Z" fill="#DBAE2D"/>
</svg>
