<svg width="317" height="37" viewBox="0 0 317 37" fill="none" xmlns="http://www.w3.org/2000/svg">
<path d="M50.8345 36.7086L45.4435 27.0605H43.9295V36.7086H37.6154V11.1501H48.2129C50.256 11.1501 51.9915 11.5021 53.4193 12.206C54.8717 12.9099 55.9548 13.8807 56.6687 15.1186C57.3826 16.3322 57.7395 17.6914 57.7395 19.1963C57.7395 20.8954 57.2472 22.4124 56.2625 23.7473C55.3025 25.0823 53.8747 26.0289 51.9792 26.5871L57.9611 36.7086H50.8345ZM43.9295 22.6551H47.8436C49.0006 22.6551 49.8622 22.3759 50.4284 21.8177C51.0192 21.2594 51.3146 20.4706 51.3146 19.4512C51.3146 18.4803 51.0192 17.7157 50.4284 17.1575C49.8622 16.5992 49.0006 16.3201 47.8436 16.3201H43.9295V22.6551Z" fill="white"/>
<path d="M81.1258 26.2231C81.1258 26.8056 81.0889 27.4124 81.015 28.0435H66.725C66.8235 29.3056 67.2297 30.2765 67.9436 30.9561C68.6821 31.6115 69.5806 31.9391 70.6391 31.9391C72.2146 31.9391 73.31 31.2838 73.9254 29.9731H80.6458C80.3012 31.3081 79.6734 32.5095 78.7626 33.5775C77.8764 34.6455 76.7563 35.4828 75.4024 36.0896C74.0485 36.6965 72.5346 36.9999 70.8606 36.9999C68.8421 36.9999 67.045 36.5751 65.4696 35.7256C63.8941 34.876 62.6633 33.6624 61.7771 32.0848C60.8909 30.5071 60.4478 28.6624 60.4478 26.5507C60.4478 24.4391 60.8785 22.5944 61.7401 21.0167C62.6263 19.439 63.8572 18.2254 65.4326 17.3759C67.0081 16.5264 68.8174 16.1016 70.8606 16.1016C72.8546 16.1016 74.627 16.5142 76.1778 17.3395C77.7287 18.1647 78.9349 19.3419 79.7965 20.8711C80.6827 22.4002 81.1258 24.1842 81.1258 26.2231ZM74.6639 24.5847C74.6639 23.5167 74.2947 22.6672 73.5562 22.0361C72.8177 21.4051 71.8945 21.0895 70.7868 21.0895C69.7283 21.0895 68.8298 21.3929 68.0913 21.9997C67.3774 22.6065 66.9343 23.4682 66.7619 24.5847H74.6639Z" fill="white"/>
<path d="M92.8389 36.9999C91.0418 36.9999 89.4417 36.6965 88.0386 36.0896C86.6354 35.4828 85.5277 34.6576 84.7153 33.6139C83.903 32.5459 83.4476 31.3566 83.3491 30.0459H89.5894C89.6633 30.7498 89.9956 31.3202 90.5864 31.7571C91.1772 32.194 91.9034 32.4124 92.765 32.4124C93.5527 32.4124 94.1558 32.2668 94.5743 31.9755C95.0174 31.66 95.239 31.2595 95.239 30.7741C95.239 30.1915 94.9313 29.7668 94.3159 29.4998C93.7004 29.2085 92.7035 28.893 91.3249 28.5532C89.8479 28.2134 88.6171 27.8614 87.6324 27.4973C86.6477 27.109 85.7985 26.5143 85.0846 25.7134C84.3707 24.8881 84.0138 23.7837 84.0138 22.4002C84.0138 21.2352 84.3338 20.1793 84.9738 19.2327C85.6385 18.2618 86.5985 17.4973 87.854 16.939C89.134 16.3808 90.648 16.1016 92.3957 16.1016C94.9805 16.1016 97.0114 16.7327 98.4884 17.9948C99.99 19.257 100.852 20.9318 101.073 23.0192H95.239C95.1405 22.3153 94.8205 21.757 94.2789 21.3444C93.762 20.9318 93.0727 20.7254 92.2111 20.7254C91.4726 20.7254 90.9064 20.8711 90.5126 21.1623C90.1187 21.4293 89.9218 21.8056 89.9218 22.291C89.9218 22.8735 90.2295 23.3104 90.8449 23.6017C91.4849 23.893 92.4696 24.1842 93.7989 24.4755C95.3251 24.8638 96.5683 25.2522 97.5283 25.6405C98.4884 26.0046 99.3254 26.6114 100.039 27.4609C100.778 28.2862 101.159 29.4027 101.184 30.8105C101.184 31.9998 100.839 33.0678 100.15 34.0144C99.4854 34.9367 98.513 35.6649 97.2329 36.1989C95.9775 36.7329 94.5128 36.9999 92.8389 36.9999Z" fill="white"/>
<path d="M125.393 16.3929V36.7086H119.078V33.9416C118.438 34.8396 117.565 35.5678 116.457 36.1261C115.374 36.66 114.167 36.927 112.838 36.927C111.263 36.927 109.872 36.5872 108.666 35.9076C107.459 35.2037 106.524 34.1964 105.859 32.8857C105.195 31.5751 104.862 30.0338 104.862 28.2619V16.3929H111.14V27.4245C111.14 28.7838 111.497 29.8396 112.21 30.592C112.924 31.3445 113.884 31.7207 115.091 31.7207C116.321 31.7207 117.294 31.3445 118.008 30.592C118.722 29.8396 119.078 28.7838 119.078 27.4245V16.3929H125.393Z" fill="white"/>
<path d="M156.219 16.1744C158.779 16.1744 160.81 16.939 162.311 18.4681C163.838 19.9973 164.601 22.1211 164.601 24.8396V36.7086H158.323V25.6769C158.323 24.3663 157.967 23.359 157.253 22.6551C156.563 21.9269 155.603 21.5628 154.372 21.5628C153.142 21.5628 152.169 21.9269 151.455 22.6551C150.766 23.359 150.422 24.3663 150.422 25.6769V36.7086H144.144V25.6769C144.144 24.3663 143.787 23.359 143.073 22.6551C142.384 21.9269 141.424 21.5628 140.193 21.5628C138.962 21.5628 137.99 21.9269 137.276 22.6551C136.587 23.359 136.242 24.3663 136.242 25.6769V36.7086H129.928V16.3929H136.242V18.9415C136.882 18.0919 137.719 17.4245 138.753 16.939C139.787 16.4293 140.956 16.1744 142.261 16.1744C143.812 16.1744 145.19 16.5021 146.397 17.1575C147.628 17.8128 148.588 18.7473 149.277 19.9609C149.991 18.8444 150.963 17.9342 152.194 17.2303C153.425 16.5264 154.766 16.1744 156.219 16.1744Z" fill="white"/>
<path d="M188.439 26.2231C188.439 26.8056 188.402 27.4124 188.329 28.0435H174.039C174.137 29.3056 174.543 30.2765 175.257 30.9561C175.996 31.6115 176.894 31.9391 177.953 31.9391C179.528 31.9391 180.624 31.2838 181.239 29.9731H187.959C187.615 31.3081 186.987 32.5095 186.076 33.5775C185.19 34.6455 184.07 35.4828 182.716 36.0896C181.362 36.6965 179.848 36.9999 178.174 36.9999C176.156 36.9999 174.359 36.5751 172.783 35.7256C171.208 34.876 169.977 33.6624 169.091 32.0848C168.204 30.5071 167.761 28.6624 167.761 26.5507C167.761 24.4391 168.192 22.5944 169.054 21.0167C169.94 19.439 171.171 18.2254 172.746 17.3759C174.322 16.5264 176.131 16.1016 178.174 16.1016C180.168 16.1016 181.941 16.5142 183.491 17.3395C185.042 18.1647 186.248 19.3419 187.11 20.8711C187.996 22.4002 188.439 24.1842 188.439 26.2231ZM181.977 24.5847C181.977 23.5167 181.608 22.6672 180.87 22.0361C180.131 21.4051 179.208 21.0895 178.1 21.0895C177.042 21.0895 176.143 21.3929 175.405 21.9997C174.691 22.6065 174.248 23.4682 174.075 24.5847H181.977Z" fill="white"/>
<path d="M209.566 19.2327C209.098 18.3832 208.421 17.74 207.535 17.3031C206.673 16.8419 205.651 16.6113 204.47 16.6113C202.427 16.6113 200.79 17.2788 199.559 18.6138C198.328 19.9245 197.713 21.6842 197.713 23.893C197.713 26.2473 198.353 28.092 199.633 29.427C200.937 30.7377 202.722 31.393 204.987 31.393C206.538 31.393 207.842 31.0047 208.901 30.228C209.984 29.4512 210.772 28.3347 211.264 26.8784H203.251V22.291H216.987V28.0799C216.52 29.6333 215.72 31.0775 214.587 32.4124C213.48 33.7474 212.064 34.8275 210.341 35.6528C208.618 36.478 206.673 36.8906 204.507 36.8906C201.947 36.8906 199.657 36.3445 197.639 35.2523C195.645 34.1358 194.082 32.5945 192.949 30.6284C191.841 28.6624 191.288 26.4172 191.288 23.893C191.288 21.3687 191.841 19.1235 192.949 17.1575C194.082 15.1672 195.645 13.6259 197.639 12.5336C199.633 11.4171 201.91 10.8589 204.47 10.8589C207.572 10.8589 210.181 11.5992 212.298 13.0798C214.44 14.5604 215.855 16.6113 216.544 19.2327H209.566Z" fill="#DBAE2D"/>
<path d="M239.908 26.2231C239.908 26.8056 239.871 27.4124 239.797 28.0435H225.507C225.605 29.3056 226.011 30.2765 226.725 30.9561C227.464 31.6115 228.362 31.9391 229.421 31.9391C230.996 31.9391 232.092 31.2838 232.707 29.9731H239.428C239.083 31.3081 238.455 32.5095 237.544 33.5775C236.658 34.6455 235.538 35.4828 234.184 36.0896C232.83 36.6965 231.316 36.9999 229.642 36.9999C227.624 36.9999 225.827 36.5751 224.251 35.7256C222.676 34.876 221.445 33.6624 220.559 32.0848C219.673 30.5071 219.23 28.6624 219.23 26.5507C219.23 24.4391 219.66 22.5944 220.522 21.0167C221.408 19.439 222.639 18.2254 224.214 17.3759C225.79 16.5264 227.599 16.1016 229.642 16.1016C231.636 16.1016 233.409 16.5142 234.96 17.3395C236.51 18.1647 237.717 19.3419 238.578 20.8711C239.464 22.4002 239.908 24.1842 239.908 26.2231ZM233.446 24.5847C233.446 23.5167 233.076 22.6672 232.338 22.0361C231.599 21.4051 230.676 21.0895 229.569 21.0895C228.51 21.0895 227.612 21.3929 226.873 21.9997C226.159 22.6065 225.716 23.4682 225.544 24.5847H233.446Z" fill="#DBAE2D"/>
<path d="M269.529 16.1744C272.089 16.1744 274.12 16.939 275.622 18.4681C277.148 19.9973 277.911 22.1211 277.911 24.8396V36.7086H271.634V25.6769C271.634 24.3663 271.277 23.359 270.563 22.6551C269.874 21.9269 268.914 21.5628 267.683 21.5628C266.452 21.5628 265.48 21.9269 264.766 22.6551C264.077 23.359 263.732 24.3663 263.732 25.6769V36.7086H257.455V25.6769C257.455 24.3663 257.098 23.359 256.384 22.6551C255.695 21.9269 254.735 21.5628 253.504 21.5628C252.273 21.5628 251.301 21.9269 250.587 22.6551C249.897 23.359 249.553 24.3663 249.553 25.6769V36.7086H243.239V16.3929H249.553V18.9415C250.193 18.0919 251.03 17.4245 252.064 16.939C253.098 16.4293 254.267 16.1744 255.572 16.1744C257.122 16.1744 258.501 16.5021 259.707 17.1575C260.938 17.8128 261.898 18.7473 262.587 19.9609C263.301 18.8444 264.274 17.9342 265.504 17.2303C266.735 16.5264 268.077 16.1744 269.529 16.1744Z" fill="#DBAE2D"/>
<path d="M308.618 16.1744C311.178 16.1744 313.209 16.939 314.711 18.4681C316.237 19.9973 317 22.1211 317 24.8396V36.7086H310.723V25.6769C310.723 24.3663 310.366 23.359 309.652 22.6551C308.963 21.9269 308.003 21.5628 306.772 21.5628C305.541 21.5628 304.568 21.9269 303.855 22.6551C303.165 23.359 302.821 24.3663 302.821 25.6769V36.7086H296.543V25.6769C296.543 24.3663 296.187 23.359 295.473 22.6551C294.783 21.9269 293.823 21.5628 292.592 21.5628C291.362 21.5628 290.389 21.9269 289.675 22.6551C288.986 23.359 288.641 24.3663 288.641 25.6769V36.7086H282.327V16.3929H288.641V18.9415C289.281 18.0919 290.118 17.4245 291.152 16.939C292.186 16.4293 293.356 16.1744 294.66 16.1744C296.211 16.1744 297.59 16.5021 298.796 17.1575C300.027 17.8128 300.987 18.7473 301.676 19.9609C302.39 18.8444 303.362 17.9342 304.593 17.2303C305.824 16.5264 307.166 16.1744 308.618 16.1744Z" fill="#DBAE2D"/>
<path d="M0 2C0 0.895429 0.895431 0 2 0L23.2173 0L30.914 6.62923V34.8314C30.914 35.936 30.0186 36.8314 28.914 36.8314H2C0.895429 36.8314 0 35.936 0 34.8314V2Z" fill="#434C66"/>
<mask id="mask0_564_1266" style="mask-type:alpha" maskUnits="userSpaceOnUse" x="0" y="11" width="22" height="26">
<path d="M14.2274 37L8.42515 27.4113H6.79576V37H0V11.599H11.4057C13.6048 11.599 15.4726 11.9488 17.0093 12.6484C18.5724 13.3479 19.7382 14.3128 20.5065 15.5431C21.2748 16.7492 21.659 18.1 21.659 19.5956C21.659 21.2842 21.1291 22.7919 20.0693 24.1186C19.0361 25.4453 17.4994 26.3861 15.4594 26.9409L21.8974 37H14.2274ZM6.79576 23.0331H11.0083C12.2536 23.0331 13.1809 22.7557 13.7902 22.2009C14.4261 21.646 14.744 20.8621 14.744 19.8489C14.744 18.884 14.4261 18.1242 13.7902 17.5693C13.1809 17.0145 12.2536 16.7371 11.0083 16.7371H6.79576V23.0331Z" fill="white"/>
</mask>
<g mask="url(#mask0_564_1266)">
<path d="M0 7.8338H27.9389V36.8314H2C0.89543 36.8314 0 35.9359 0 34.8314V7.8338Z" fill="white"/>
</g>
<path d="M23.3251 0.0368195L30.9373 6.58393L24.3403 7.6459C23.8078 7.73162 23.3251 7.3204 23.3251 6.78106V0.0368195Z" fill="#DBAE2D"/>
</svg>
