<?xml version="1.0" encoding="iso-8859-1"?>
<!-- Uploaded to: SVG Repo, www.svgrepo.com, Generator: SVG Repo Mixer Tools -->
<svg height="800px" width="800px" version="1.1" id="Layer_1" xmlns="http://www.w3.org/2000/svg" xmlns:xlink="http://www.w3.org/1999/xlink" 
	 viewBox="0 0 392.533 392.533" xml:space="preserve">
<path style="fill:#FFFFFF;" d="M359.822,21.786H87.855c-6.012,0-10.925,4.848-10.925,10.925v321.358
	c0,5.947-1.422,11.636-3.879,16.679h280.954c9.18,0,16.679-7.499,16.679-16.679V32.711
	C370.747,26.699,365.834,21.786,359.822,21.786z"/>
<path style="fill:#FFC10D;" d="M109.705,348.962h228.331c6.012,0,10.925-4.848,10.925-10.925V54.562
	c0-6.012-4.848-10.925-10.925-10.925H109.705c-6.012,0-10.925,4.848-10.925,10.925v283.539
	C98.844,343.984,103.693,348.962,109.705,348.962z"/>
<g>
	<path style="fill:#194F82;" d="M327.176,172.865h-206.61c-6.012,0-10.925-4.848-10.925-10.925c0-6.012,4.848-10.925,10.925-10.925
		h206.61c6.012,0,10.925,4.848,10.925,10.925C338.036,168.016,333.188,172.865,327.176,172.865z"/>
	<path style="fill:#194F82;" d="M327.176,224.776h-206.61c-6.012,0-10.925-4.848-10.925-10.925c0-6.012,4.848-10.925,10.925-10.925
		h206.61c6.012,0,10.925,4.848,10.925,10.925C338.101,219.927,333.188,224.776,327.176,224.776z"/>
	<path style="fill:#194F82;" d="M327.176,276.687h-206.61c-6.012,0-10.925-4.848-10.925-10.925c0-6.012,4.848-10.925,10.925-10.925
		h206.61c6.012,0,10.925,4.848,10.925,10.925C338.036,271.838,333.188,276.687,327.176,276.687z"/>
	<path style="fill:#194F82;" d="M327.176,328.663h-206.61c-6.012,0-10.925-4.848-10.925-10.925c0-6.012,4.848-10.925,10.925-10.925
		h206.61c6.012,0,10.925,4.848,10.925,10.925C338.036,323.75,333.188,328.663,327.176,328.663z"/>
	<path style="fill:#194F82;" d="M359.822,0H87.855C69.818,0,55.143,14.675,55.143,32.711v321.358c0,9.18-7.499,16.679-16.679,16.679
		s-16.679-7.499-16.679-16.679v-185.6c0-6.012-4.848-10.925-10.925-10.925S0,162.392,0,168.469v185.6
		c0,21.269,17.261,38.465,38.465,38.465h315.604c21.269,0,38.465-17.261,38.465-38.465V32.711C392.533,14.675,377.859,0,359.822,0z
		 M370.747,354.069c0,9.18-7.499,16.679-16.679,16.679H73.115c2.457-5.042,3.879-10.731,3.879-16.679V32.711
		c0-6.012,4.848-10.925,10.925-10.925h271.903c6.012,0,10.925,4.848,10.925,10.925V354.069L370.747,354.069z"/>
	<path style="fill:#194F82;" d="M129.487,73.503h15.838v25.083c0,7.046-4.396,7.822-6.077,7.822c-3.556,0-6.853-1.681-10.149-5.172
		l-6.206,8.598c4.784,4.913,10.408,7.434,16.873,7.434c5.172,0,17.648-1.875,17.648-19.006V63.354h-27.798v10.214h-0.129V73.503z"/>
	<path style="fill:#194F82;" d="M264.986,88.954c0.905-0.388,7.887-2.651,7.887-11.507c0-14.158-15.321-14.158-18.877-14.158H233.18
		v53.398h23.402c7.37,0,18.747-1.745,19.265-14.804C276.234,92.638,268.283,89.6,264.986,88.954z M245.075,73.309h5.689
		c3.556,0,6.012,0.388,7.499,1.164c1.487,0.776,2.263,2.327,2.263,4.719c0,2.392-0.776,3.943-2.392,4.655
		c-1.616,0.711-4.073,1.099-7.434,1.099h-5.624L245.075,73.309L245.075,73.309z M260.913,105.309
		c-1.681,0.84-4.267,1.228-7.628,1.228h-8.21V94.255h7.046c3.943,0,6.853,0.388,8.663,1.164c1.875,0.776,2.715,2.392,2.715,4.848
		C263.564,102.853,262.723,104.533,260.913,105.309z"/>
	<path style="fill:#194F82;" d="M195.038,62.061c-18.618,0-28.057,14.804-28.057,27.604c0,10.408,7.434,27.604,28.057,27.604
		c18.618,0,28.057-14.804,28.057-27.604C223.095,79.192,215.661,62.061,195.038,62.061z M210.877,89.6
		c0,8.275-6.077,17.261-15.838,17.261c-8.21,0-15.838-7.176-15.838-17.261h0.065c0-8.275,6.077-17.261,15.838-17.261
		c8.145,0,15.838,7.176,15.838,17.261C210.941,89.6,210.877,89.6,210.877,89.6z"/>
	<path style="fill:#194F82;" d="M308.752,84.816c-4.913-1.487-11.83-2.327-11.83-6.982c0-1.552,1.164-5.172,6.4-5.172
		c4.913,0,9.762,1.745,14.352,5.236l6.012-8.727c-6.853-6.012-16.485-7.046-20.105-7.046c-5.495,0-19.135,2.069-19.135,15.903
		c0,14.158,12.994,14.739,18.036,17.002c3.685,1.616,9.891,1.616,9.891,6.723c0,4.655-4.848,5.236-7.046,5.236
		c-4.848,0-10.214-2.521-15.968-7.564l-7.111,8.727c6.788,6.271,14.481,9.438,22.885,9.438c5.883,0,19.653-2.651,19.653-16.162
		C324.784,88.76,313.729,86.368,308.752,84.816z"/>
</g>
</svg>