<svg width="100%" height="100%" viewBox="0 0 24 24" xmlns="http://www.w3.org/2000/svg">
    <path d="M3.36027 16.692C2.26779 15.4696 2.41372 13.6355 3.54608 12.3799L5.75795 9.92723C6.1505 9.49194 6.09371 8.84298 5.63248 8.49347C5.17126 8.14397 4.46525 8.2149 4.0727 8.65019L1.93632 11.0192C-0.0339751 13.204 -0.0987874 16.4381 2.01861 18.395C4.44286 20.6406 8.43563 20.3689 10.6399 17.9246L12.9424 15.3715C13.335 14.9362 13.2782 14.2872 12.8169 13.9377C12.3557 13.5882 11.6497 13.6591 11.2572 14.0944L8.95471 16.6475C7.51284 18.2464 4.82961 18.3409 3.36027 16.692ZM8.60188 13.5619L13.1313 8.53935C13.5465 8.07895 13.4871 7.3998 12.9992 7.03013C12.5114 6.66046 11.7726 6.7347 11.3574 7.1951L6.82793 12.2176C6.41274 12.678 6.47217 13.3572 6.96 13.7269C7.44783 14.0965 8.18668 14.0223 8.60188 13.5619ZM9.15321 3.01657L7.01683 5.38554C6.62428 5.82082 6.68107 6.46979 7.14229 6.81929C7.60351 7.1688 8.30952 7.09786 8.70207 6.66258L10.9139 4.2099C12.0463 2.95426 13.9839 2.47792 15.4991 3.23157C17.5422 4.24428 17.9456 6.67779 16.5037 8.27663L14.2013 10.8298C13.8087 11.265 13.8655 11.914 14.3267 12.2635C14.788 12.613 15.494 12.5421 15.8865 12.1068L18.189 9.55367C20.3933 7.10937 19.9335 3.46354 17.0789 1.69499C14.5841 0.156731 11.1235 0.83176 9.15321 3.01657Z"
          fill="currentColor"/>
</svg>
