<svg width="20" height="22" viewBox="0 0 20 22" fill="none" xmlns="http://www.w3.org/2000/svg">
<path fill-rule="evenodd" clip-rule="evenodd" d="M2.79643 4.13009C2.10564 4.87465 1.51902 5.69818 1.10235 6.64016C1.57938 7.01711 2.05641 7.39519 2.53295 7.77288C3.1189 8.23729 3.70412 8.70112 4.28766 9.16151C4.337 9.201 4.39183 9.23484 4.44665 9.26868C4.80849 8.24773 5.36222 7.35652 6.14073 6.61195C8.40498 4.44596 11.8863 4.4234 14.019 6.43146C14.1547 6.56104 14.2175 6.49245 14.2908 6.41246L14.2909 6.41245C14.3005 6.40192 14.3103 6.39119 14.3206 6.38069C14.6392 6.05494 14.9564 5.72839 15.2734 5.40195C15.8018 4.85789 16.3299 4.3141 16.8644 3.77473C17.0344 3.60551 16.996 3.52654 16.8425 3.39117C14.4192 1.24773 11.6177 0.486249 8.48722 0.999545C6.25038 1.36618 4.35893 2.44918 2.79643 4.13009ZM5.67455 15.5751C5.10986 14.932 4.73157 14.1818 4.42455 13.3809C3.86807 13.8236 3.31297 14.2678 2.75787 14.7121C2.20277 15.1562 1.64768 15.6004 1.09122 16.0432C1.73266 17.4139 2.63727 18.5702 3.79407 19.5066C6.58464 21.7741 9.73157 22.3382 13.1362 21.4469C14.5835 21.069 15.8664 20.3639 16.9574 19.2979C15.9706 18.5082 14.9838 17.7185 13.9969 16.9232C13.9473 16.8823 13.8997 16.8374 13.8516 16.792L13.8516 16.792C13.8201 16.7622 13.7883 16.7323 13.7557 16.7032C12.9114 17.2334 12.0123 17.5775 11.0199 17.6846C8.88727 17.9103 7.11095 17.2052 5.67455 15.5751ZM16.963 19.2976C16.4695 18.9028 15.9761 18.5065 15.4826 18.1102L15.4806 18.1086C14.9879 17.7129 14.4952 17.3172 14.0025 16.9229C13.9327 16.8691 13.8699 16.8081 13.8085 16.7485L13.8084 16.7485C13.7926 16.7332 13.7769 16.718 13.7612 16.703C14.4301 16.1784 14.9893 15.5579 15.3566 14.7682C15.5047 14.4523 15.6033 14.1252 15.702 13.7924C15.7678 13.5611 15.7459 13.4709 15.4718 13.4765C14.2969 13.4886 13.1221 13.4863 11.9473 13.484L11.9458 13.484C11.4764 13.4831 11.007 13.4822 10.5375 13.4822C10.3656 13.4822 10.2779 13.4822 10.2332 13.4383C10.1867 13.3927 10.1867 13.2997 10.1867 13.1099C10.1867 12.824 10.187 12.5377 10.1874 12.2513V12.2508C10.1884 11.3902 10.1894 10.5281 10.1812 9.66911C10.1812 9.44912 10.2196 9.36451 10.4608 9.36451C12.7347 9.37297 15.0086 9.37192 17.2824 9.37086C18.0404 9.37051 18.7983 9.37015 19.5562 9.37015C19.7207 9.37015 19.8248 9.38143 19.8522 9.5845C20.2305 12.3146 19.929 14.9205 18.5365 17.3291C18.1143 18.068 17.6044 18.7392 16.963 19.2976ZM2.75796 14.7119C3.31306 14.2677 3.86817 13.8235 4.42464 13.3807C4.02442 12.01 4.00249 10.6393 4.44657 9.27432L4.44656 9.27431C4.39173 9.24047 4.33691 9.20663 4.28758 9.16714C3.7558 8.74694 3.22403 8.32533 2.69226 7.90371C2.16044 7.48205 1.62861 7.0604 1.09679 6.64015C1.07907 6.67457 1.05995 6.70899 1.04068 6.74367C1.00627 6.80561 0.971393 6.86838 0.943278 6.93346C0.115427 8.77794 -0.164178 10.7127 0.0880146 12.7264C0.236041 13.8883 0.548541 15.0052 1.0913 16.0431C1.64777 15.6003 2.20287 15.1561 2.75796 14.7119Z" fill="white"/>
</svg>
