<?xml version="1.0" encoding="UTF-8"?>
<svg xmlns="http://www.w3.org/2000/svg" id="a" width="865.76" height="682.89" viewBox="0 0 865.76 682.89">
  <rect x="105.12" y="136.58" width="369.24" height="262.85" rx="6.16" ry="6.16" fill="#002346"></rect>
  <g>
    <rect x="105.12" y="136.58" width="369.24" height="262.85" rx="6.16" ry="6.16" fill="#fff"></rect>
    <path d="M468.2,400.06H111.27c-3.74,0-6.78-3.04-6.78-6.78V142.74c0-3.74,3.04-6.78,6.78-6.78H468.2c3.74,0,6.78,3.04,6.78,6.78v250.53c0,3.74-3.04,6.78-6.78,6.78ZM111.27,137.21c-3.05,0-5.53,2.48-5.53,5.53v250.53c0,3.05,2.48,5.53,5.53,5.53H468.2c3.05,0,5.53-2.48,5.53-5.53V142.74c0-3.05-2.48-5.53-5.53-5.53H111.27Z" fill="#002346"></path>
  </g>
  <g>
    <rect x="111.37" y="142.85" width="356.73" height="250.33" rx="6.16" ry="6.16" fill="#e6e7e8"></rect>
    <path d="M461.94,393.81H117.53c-3.74,0-6.78-3.04-6.78-6.78V149.01c0-3.74,3.04-6.78,6.78-6.78H461.94c3.74,0,6.78,3.04,6.78,6.78v238.02c0,3.74-3.04,6.78-6.78,6.78ZM117.53,143.48c-3.05,0-5.53,2.48-5.53,5.53v238.02c0,3.05,2.48,5.53,5.53,5.53H461.94c3.05,0,5.53-2.48,5.53-5.53V149.01c0-3.05-2.48-5.53-5.53-5.53H117.53Z" fill="#002346"></path>
  </g>
  <g>
    <path d="M379.85,99.04s-12.49,3.13-12.49,21.92V411.91H135.84V126.51c-.05-15.22,12.25-27.6,27.47-27.65,.84,0,1.67,.03,2.5,.11l.85,.07h213.2Z" fill="#fff"></path>
    <path d="M367.99,412.53H135.21V126.51c-.05-15.54,12.55-28.22,28.09-28.28,.88,0,1.71,.03,2.56,.11l.85,.08h218.11s-4.82,1.23-4.82,1.23c-.49,.12-12.02,3.28-12.02,21.31V412.53Zm-231.53-1.25h230.28V120.95c0-13.43,6.38-19.1,10.19-21.29H166.65l-.9-.08c-.81-.07-1.64-.1-2.45-.1-14.85,.05-26.89,12.17-26.84,27.03V411.28Z" fill="#002346"></path>
  </g>
  <g>
    <path d="M377.35,99.04s18.73-3.12,18.73,15.65v89.3s0,13.97,12.49,17.1h-43.73V120.95s0-18.78,12.51-21.92Z" fill="#e6e7e8"></path>
    <path d="M413.64,221.7h-49.43V120.95c0-.79,.15-19.31,12.98-22.52h.05c.35-.07,8.74-1.4,14.45,3.43,3.33,2.82,5.01,7.13,5.01,12.82v89.3c0,.55,.16,13.53,12.01,16.49l4.92,1.23Zm-48.18-1.25h39.56c-9.44-4.63-9.56-16.34-9.56-16.47V114.68c0-5.3-1.54-9.29-4.57-11.86-5.12-4.34-12.94-3.24-13.42-3.17-11.88,3-12.01,21.12-12.01,21.3v99.5Z" fill="#002346"></path>
  </g>
  <g>
    <path d="M200.23,99.04V49.68c0-3.86,3.13-6.98,6.98-6.98h232.73s-12.49,0-12.49,15.65V205.43s0,18.73-18.73,15.65c0,0-12.49-1.66-12.49-19.61V114.68s0-18.73-18.73-15.65H200.23Z" fill="#fff"></path>
    <path d="M412.68,222.04c-1.28,0-2.64-.12-4.06-.35-.11-.01-13.01-1.94-13.01-20.22V114.68c0-.08-.07-8.03-5.26-12.43-3.08-2.61-7.37-3.49-12.74-2.6h-.1s-177.9,0-177.9,0V49.68c0-4.19,3.41-7.6,7.6-7.6h232.73v1.25c-.48,0-11.86,.21-11.86,15.02V205.43c0,.35-.06,8.59-5.7,13.37-2.54,2.16-5.79,3.24-9.7,3.24Zm-31.22-123.97c3.91,0,7.16,1.08,9.7,3.24,5.63,4.78,5.7,13.03,5.7,13.38v86.79c0,17.15,11.46,18.92,11.95,18.99,5.39,.89,9.68,.01,12.76-2.6,5.19-4.4,5.26-12.35,5.26-12.43V58.35c0-9.36,4.39-13.33,8.09-15.02H207.21c-3.5,0-6.36,2.85-6.36,6.36v48.73h176.6c1.41-.23,2.74-.34,4.01-.34Z" fill="#002346"></path>
  </g>
  <g>
    <path d="M439.94,42.7s11.98-2.4,17.07,7.49c1.18,2.46,1.76,5.16,1.71,7.88l.21,78.51h-31.52V58.36s0-15.66,12.52-15.66Z" fill="#e6e7e8"></path>
    <path d="M459.56,137.21h-32.77V58.36c0-.16,.15-16.24,13.09-16.28,.99-.17,12.63-1.97,17.68,7.83,1.22,2.55,1.83,5.37,1.78,8.18l.21,79.12Zm-31.52-1.25h30.27l-.21-77.88c.05-2.63-.52-5.25-1.65-7.61-4.81-9.33-15.92-7.24-16.38-7.15h-.12c-11.76,.01-11.9,14.43-11.9,15.05v77.6Z" fill="#002346"></path>
  </g>
  <g>
    <path d="M152.07,120.95v53.2h75.1v-53.2h-75.1Zm70.4,48.88h-65.72v-44.58h65.71v44.58Z" fill="#f69074"></path>
    <path d="M227.78,174.76h-76.32v-54.41h76.32v54.41Zm-75.1-1.22h73.88v-51.98h-73.88v51.98Zm70.4-3.1h-66.94v-45.79h66.92v45.79Zm-65.71-1.22h64.5v-43.36h-64.5v43.36Z" fill="#002346"></path>
  </g>
  <g>
    <path d="M166.67,169.75l16.29-30.4c.4-.74,1.45-.75,1.86-.03l9.72,17.02c.42,.74,1.5,.71,1.88-.05l4.08-8.16c.38-.75,1.44-.79,1.87-.07l12.99,21.68h-48.69Z" fill="#f69074"></path>
    <path d="M216.38,170.34h-50.69l16.75-31.25c.29-.54,.82-.86,1.43-.87h.02c.6,0,1.13,.31,1.43,.83l9.73,17.02c.13,.23,.35,.23,.43,.24,.09,0,.3-.03,.42-.27l4.08-8.16c.27-.54,.81-.89,1.41-.91,.65,0,1.17,.28,1.48,.8l13.51,22.56Zm-48.74-1.16h46.69l-12.46-20.8c-.13-.22-.34-.22-.43-.23-.09,0-.3,.04-.41,.27l-4.08,8.16c-.27,.55-.82,.89-1.43,.91-.59,.06-1.17-.3-1.48-.83l-9.73-17.02c-.13-.22-.32-.24-.43-.24-.08,0-.3,.03-.42,.26l-15.83,29.54Z" fill="#002346"></path>
  </g>
  <g>
    <circle cx="197.16" cy="134.91" r="3.36" fill="#fbe493"></circle>
    <path d="M197.16,138.89c-2.2,0-3.98-1.79-3.98-3.98s1.79-3.98,3.98-3.98,3.98,1.79,3.98,3.98-1.79,3.98-3.98,3.98Zm0-6.72c-1.51,0-2.74,1.23-2.74,2.74s1.23,2.74,2.74,2.74,2.74-1.23,2.74-2.74-1.23-2.74-2.74-2.74Z" fill="#002346"></path>
  </g>
  <g>
    <path d="M746.49,478.37s-14,75.9-58.45,90.7c0,0-47.49,19.54-113.94,3.22-9.25-2.27-18.35-5.09-27.25-8.46,0,0-59.24-22.19-77.9-53.06l-17.87-82.27,66.63-116.68s87.31-104.8,202.41-25.21c-.03,0,69.61,25.99,26.37,191.76Z" fill="#fff"></path>
    <path d="M626.93,579.25c-15.57,0-33.48-1.69-52.95-6.47-9.23-2.26-18.42-5.12-27.31-8.48-.59-.22-59.62-22.61-78.15-53.27l-.06-.15-17.91-82.46,.09-.17,66.63-116.68c.27-.33,22.37-26.55,58.27-42.66,21.1-9.47,42.77-13.65,64.42-12.44,27.03,1.52,54.08,11.51,80.39,29.69,3.49,1.4,68.9,30.19,26.62,192.31-.29,1.54-14.8,76.42-58.78,91.06-.31,.13-24.18,9.7-61.27,9.7Zm-157.51-68.66c18.41,30.33,77.01,52.56,77.6,52.78,8.86,3.35,18,6.19,27.19,8.44,65.51,16.09,113.16-3,113.63-3.2,43.69-14.55,58.01-89.57,58.15-90.33v-.04c42.3-162.15-23.24-190.06-26.05-191.17l-.38-.15v-.08c-59.13-40.77-110.71-31.78-143.57-17.03-35.71,16.01-57.68,42.07-57.9,42.33l-66.48,116.44,17.81,82Z" fill="#002346"></path>
  </g>
  <g>
    <path d="M511.96,568.59v11.47s18.23,9.55,27.47-8.92c0,0-19.36,.03-27.47-2.55Z" fill="#f2b3c1"></path>
    <path d="M522.48,583.03c-5.83,0-10.49-2.4-10.75-2.53l-.26-.14v-12.44l.64,.2c7.95,2.53,27.11,2.51,27.32,2.53h.8s-.36,.71-.36,.71c-2.79,5.58-6.68,9.21-11.54,10.78-2,.64-3.98,.89-5.84,.89Zm-10.03-3.28c1.44,.68,8.54,3.72,15.58,1.45,4.4-1.42,7.96-4.64,10.59-9.57-3.69-.02-18.68-.25-26.17-2.38v10.5Z" fill="#002346"></path>
  </g>
  <g>
    <path d="M468.92,541.92c2.34,1.92,5.14,3.22,8.12,3.78,9.16,1.64,16.16-4.83,17.06-5.69l.4-9.19c-3,1-6.13,2.2-9.34,3.51-5.93,2.42-11.34,5-16.24,7.59Z" fill="#f2b3c1"></path>
    <path d="M480.03,546.46c-.99,0-2.02-.08-3.07-.27-3.06-.57-5.94-1.91-8.34-3.88l-.57-.47,.65-.35c5.32-2.81,10.8-5.37,16.28-7.61,3.58-1.46,6.64-2.61,9.37-3.52l.68-.23-.44,10.1-.14,.14c-1.16,1.11-6.8,6.09-14.41,6.09Zm-10.21-4.46c2.15,1.62,4.66,2.72,7.31,3.21,8.38,1.5,14.93-3.98,16.49-5.43l.36-8.27c-2.53,.86-5.37,1.94-8.63,3.27-5.23,2.13-10.45,4.56-15.53,7.22Z" fill="#002346"></path>
  </g>
  <g>
    <path d="M550.95,353.21s9.75-9.74,26-58.47l11.37-27.62s3.93-20.53,37.7-19.2l45.27-5.92s42.11,20.25,43.73,43v68.22s1.61,81.23-58.53,108.82c0,0,14.62-24.36-4.87-43.85l-16.82-17.63s-20.54,3-22.16-8.36c0,0,7.85-10.22-19.76-13.47l-27.36-12.52-9.21,1.72-5.36-14.72Z" fill="#f69074"></path>
    <path d="M655.23,463.17l.83-1.38c.14-.24,14.19-24.26-4.79-43.24l-16.65-17.45c-1.89,.24-13.05,1.47-18.96-2.95-1.98-1.48-3.17-3.46-3.51-5.87l-.03-.21,.13-.17c.07-.09,1.63-2.19,.56-4.7-1.15-2.7-5.55-6.27-19.98-7.97l-.15-.04-27.22-12.45-9.47,1.77-5.61-15.42,.22-.23c.1-.1,9.89-10.33,25.88-58.28l11.37-27.61c.27-1.2,5.23-20.86,38.2-19.55l45.33-5.93,.13,.06c1.73,.83,42.39,20.64,44.01,43.42v68.25c0,.19,.32,20.65-6.73,44.21-6.52,21.77-20.85,50.74-52.09,65.07l-1.47,.67Zm-20.25-63.14l.18,.19,16.82,17.63c16.91,16.91,8.35,37.68,5.65,43.11,29.96-14.38,43.83-42.55,50.2-63.81,7.01-23.41,6.7-43.71,6.69-43.91v-68.23c-1.54-21.54-40.71-41.2-43.31-42.48l-45.12,5.9c-33.01-1.31-37.24,18.6-37.27,18.8l-11.4,27.72c-14.96,44.86-24.32,56.64-25.89,58.4l5.11,14.03,8.95-1.67,.14,.07,27.29,12.48c11.94,1.41,18.9,4.3,20.71,8.58,1.11,2.62-.14,4.86-.56,5.5,.34,2.05,1.38,3.73,3.09,5.01,6,4.49,18.35,2.75,18.48,2.73l.26-.04Z" fill="#002346"></path>
  </g>
  <g>
    <path d="M626.08,241.21v10s-1.58,8.78,10.25,11.71c4.88,1.14,9.98,.86,14.7-.82,9.29-3.19,25.63-10.73,18.5-22.61,0,0-6.61-11.49-5.74-36.61,0,.02-6.44,40.03-37.71,38.33Z" fill="#f2b3c1"></path>
    <path d="M642.29,264.1c-2.03,0-4.07-.23-6.07-.7-12.14-3.01-10.64-12.18-10.62-12.28v-10.43s.51,.03,.51,.03c30.74,1.69,37.14-37.51,37.2-37.91l.42,.06h.56s0,.02,0,.03h0c-.85,24.66,5.61,36.23,5.68,36.35,1.89,3.16,2.31,6.26,1.23,9.22-2.49,6.83-12.25,11.44-20,14.1-2.88,1.02-5.88,1.54-8.9,1.54Zm-15.72-22.38v9.48c-.07,.43-1.34,8.46,9.88,11.23,4.79,1.12,9.78,.84,14.42-.81,6.18-2.12,16.91-6.7,19.4-13.51,.97-2.67,.58-5.49-1.15-8.39-.26-.45-5.85-10.43-5.89-32.07-1.7,6.37-5.72,17.73-14.02,25.59-6.3,5.96-13.91,8.82-22.62,8.46Z" fill="#002346"></path>
  </g>
  <g>
    <path d="M656.49,462.04s-40.6,6.5-87.71-3.24c0,0-18.37,77.14-22.76,92.09-.41,1.29-.41,2.66,0,3.95,1.17,3.5,2.74,11.19-4,15.71-.87,.58-1.83,1.03-2.83,1.33l-.39,.11c-1.3,.35-2.65,.5-4,.43-6.71-.27-22.61-1.51-28.57-7.13-.6-.58-1-1.33-1.15-2.15-.65-3.36-.54-6.82,.31-10.13,0,0-6.5-73.81,0-117.31,0,0,0-14.27,15.43-19.95,15-5.53,91-31.46,91-31.46,0,0,2.42,3,.79,7.91,0,0,.47,10.23,22.16,8.36l19.5,20.53s15.22,16.59,2.22,40.95Z" fill="#fbe493"></path>
    <path d="M535.45,572.94c-.22,0-.45,0-.67-.02-6.65-.27-22.79-1.51-28.89-7.26-.68-.66-1.13-1.5-1.3-2.42-.65-3.38-.55-6.92,.3-10.26-.25-2.9-6.32-74.94,.01-117.34,0-.07,.17-14.61,15.75-20.34,14.83-5.47,90.25-31.21,91.01-31.46l.33-.11,.22,.27c.1,.13,2.54,3.23,.91,8.28,.05,.42,.4,2.4,2.55,4.27,2.48,2.15,7.79,4.51,19.06,3.54l.24-.02,19.67,20.7c.16,.17,15.32,17.14,2.3,41.53l-.12,.22-.25,.04c-.41,.06-40.95,6.36-87.42-3.15-1.55,6.5-18.49,77.46-22.65,91.64-.38,1.2-.38,2.47,0,3.66,1.1,3.3,2.91,11.51-4.2,16.28-.92,.61-1.91,1.08-2.97,1.39l-.4,.11c-1.14,.31-2.31,.46-3.49,.46Zm76.18-188.05c-5.68,1.94-76.33,26.06-90.63,31.33-14.91,5.49-15.1,19.34-15.1,19.48-6.42,43.02-.07,116.53,0,117.27v.08s-.01,.08-.01,.08c-.83,3.22-.93,6.65-.3,9.91,.13,.73,.48,1.38,1.01,1.89,5.85,5.52,21.7,6.73,28.24,6.99,1.3,.07,2.6-.07,3.85-.41l.39-.11c.95-.28,1.86-.71,2.69-1.26,6.3-4.22,5.09-11.3,3.8-15.14-.44-1.4-.44-2.87,0-4.26,4.33-14.76,22.57-91.28,22.75-92.06l.11-.47,.48,.1c44.59,9.22,83.82,3.79,87.29,3.27,12.46-23.63-2.12-39.99-2.27-40.16l-19.33-20.35c-11.49,.95-17-1.56-19.6-3.83-2.71-2.38-2.86-4.91-2.86-5.02v-.09s.02-.09,.02-.09c1.26-3.79,0-6.34-.51-7.16Z" fill="#002346"></path>
  </g>
  <g>
    <path d="M542.49,408.1l-22.4,8.46c-11.37,4.88-12.75,11.94-12.75,11.94l-32.73-.57c4.87,6.5,21.4,78,21.4,78,1.49-.61,3.2-.4,4.5,.55h0c.91,.58,1.73,1.29,2.42,2.12l-.39,15c-.85,2.34-4,4.84-8.08,7.23-9.79,5.77-24.77,10.82-24.77,10.82-13,4.87-14.62-8.12-14.62-8.12-3.25-6.5,0-6.5,0-6.5l-18.78-43.58c-6.1-14.03-10.74-28.65-13.87-43.63-3.12-14.63-5.22-29.45-6.29-44.37-3.25-14.62,42.23-26,42.23-26l3.25,11.37,80.88,27.28Z" fill="#fbe493"></path>
    <path d="M464.35,543.24c-1.77,0-3.35-.42-4.73-1.25-4.03-2.44-4.91-7.55-5.03-8.31-1.46-2.94-1.83-5.04-1.09-6.23,.24-.39,.57-.63,.88-.76l-18.55-43.04c-6.1-14.04-10.77-28.75-13.9-43.73-3.12-14.59-5.24-29.55-6.3-44.44-3.31-14.85,40.73-26.05,42.61-26.52l.47-.12,3.31,11.58,81.96,27.64-23.71,8.95c-10.93,4.69-12.42,11.5-12.44,11.57l-.08,.41h-.42s-31.82-.56-31.82-.56c5.19,9.68,19.26,69.97,20.86,76.83,1.51-.43,3.14-.15,4.43,.8,.93,.59,1.78,1.34,2.51,2.2l.12,.14-.42,15.35c-.82,2.25-3.53,4.7-8.3,7.49-9.72,5.73-24.71,10.81-24.86,10.86-1.99,.75-3.83,1.12-5.51,1.12Zm-9.27-15.71s-.47,.02-.73,.46c-.3,.5-.55,1.86,1.18,5.32l.05,.16c0,.05,.72,5.35,4.57,7.67,2.41,1.46,5.57,1.47,9.38,.04,.17-.06,15.06-5.11,24.69-10.78,4.44-2.6,7.08-4.92,7.84-6.9l.38-14.72c-.63-.73-1.37-1.36-2.18-1.88-1.2-.87-2.7-1.05-4.04-.51l-.54,.22-.13-.57c-.17-.71-16.56-71.47-21.31-77.81l-.61-.82,33.36,.58c.48-1.62,2.89-7.58,12.94-11.89l21.11-7.97-79.8-26.92-3.19-11.15c-4.79,1.26-44.33,12.08-41.4,25.29,1.07,14.92,3.18,29.82,6.29,44.37,3.11,14.92,7.77,29.56,13.84,43.54l19.08,44.28h-.76Z" fill="#002346"></path>
  </g>
  <g>
    <path d="M543.56,583.11c-.05,1.84-.42,3.67-1.07,5.39-3.6,14.36-25.65,34.35-25.65,34.35-21.12,17.87-37.62,12.19-37.62,12.19-.66-.3-1.24-.76-1.7-1.33h0c-3.7-5,10.08-15.71,10.08-15.71,3.46-3.5,6.57-7.32,9.29-11.4,3.64-5.46,6.29-11.53,8.12-17.84,3.13-10.8,6.94-8.7,6.94-8.7,12.3,4.1,20.46-1.05,24.38-4.66,1.03-.98,1.88-2.13,2.51-3.4l.39-.11c3.66,3.27,4.44,8.03,4.33,11.21Z" fill="#f69074"></path>
    <path d="M485.91,636.36c-4.27,0-6.79-.82-6.85-.85-.77-.35-1.42-.86-1.93-1.49-3.96-5.35,9.58-15.97,10.16-16.42,3.38-3.42,6.48-7.23,9.19-11.28,3.43-5.15,6.14-11.1,8.05-17.7,1.47-5.07,3.3-8.09,5.43-8.98,1.28-.53,2.2-.04,2.24-.02,12.02,4,20.07-1.16,23.8-4.59,.98-.94,1.79-2.03,2.4-3.25l.1-.2,.87-.25,.21,.18c4.29,3.83,4.57,9.39,4.5,11.6-.06,1.91-.43,3.77-1.1,5.55-3.58,14.29-24.88,33.72-25.78,34.54-13.01,11.01-24.4,13.14-31.27,13.14Zm25.24-55.95c-.23,0-.52,.05-.85,.19-1.25,.54-3.1,2.43-4.8,8.31-1.94,6.69-4.69,12.74-8.18,17.97-2.74,4.11-5.88,7.96-9.36,11.47-3.77,2.94-12.83,11.28-10.03,15.06,.39,.49,.92,.9,1.51,1.17,.12,.04,16.46,5.34,37.09-12.12,.21-.19,21.97-20.04,25.49-34.09,.65-1.73,1-3.49,1.06-5.28h0c.07-2.03-.18-7.05-3.91-10.59-.64,1.22-1.47,2.32-2.47,3.27-3.89,3.59-12.3,8.96-24.88,4.77-.06-.03-.29-.14-.65-.14Z" fill="#002346"></path>
  </g>
  <g>
    <path d="M544.84,598.64l-7,10.08c-5.51,7.97-12.27,15.01-20,20.86-12.95,9.72-20.55,10-20.55,10-19,3.63-19.76-5.36-19.8-5.84,.46,.57,1.05,1.02,1.71,1.33,0,0,16.5,5.68,37.62-12.18,0,0,22.06-20,25.65-34.36,.65-1.72,1.02-3.55,1.07-5.39h0c3.87,2.19,4.31,6,3.88,9-.34,2.34-1.22,4.57-2.58,6.5Z" fill="#fff"></path>
    <path d="M489.17,640.95c-4.04,0-7.18-.82-9.35-2.47-2.41-1.83-2.77-4.06-2.82-4.7l-.13-1.61,1.02,1.26c.41,.51,.94,.92,1.53,1.19,.11,.04,16.46,5.34,37.09-12.11,.21-.19,21.98-20.05,25.49-34.1,.65-1.73,1-3.49,1.06-5.28l.02-.83,.72,.41c4.2,2.38,4.56,6.48,4.13,9.51-.35,2.41-1.27,4.73-2.67,6.71l-7,10.08c-5.55,8.03-12.32,15.09-20.11,20.97-12.93,9.7-20.52,10.09-20.83,10.1-3.03,.58-5.74,.87-8.14,.87Zm-10.76-5.75c.34,.75,.94,1.66,2.01,2.48,2.21,1.68,6.92,3.29,16.78,1.41,.15-.01,7.71-.42,20.34-9.91,7.7-5.82,14.4-12.8,19.89-20.75l7-10.08c1.31-1.86,2.17-4.03,2.49-6.28,.36-2.54,.11-5.91-2.93-8.05-.13,1.6-.48,3.18-1.06,4.69-3.57,14.29-24.88,33.73-25.78,34.55-21.1,17.85-37.95,12.34-38.12,12.28-.22-.1-.43-.21-.63-.34Z" fill="#002346"></path>
  </g>
  <g>
    <path d="M496.01,553.72c-6.2,12.1-34.37,28-34.37,28-27.58,12.46-41.26,1.38-41.26,1.38-1.04-.83-1.88-1.89-2.45-3.09-.49-1.07-.56-2.29-.18-3.41,1.81-5.42,13-9,13-9,2.19-1.15,4.31-2.45,6.33-3.87,.93-.63,1.84-1.28,2.72-1.93,2.94-2.13,5.47-4.16,6.57-5l.62-.52c.33-.39,.65-.77,1-1.12h0c2.23-2.55,4.18-4.61,5.87-6.29,1.85-1.83,3.38-3.18,4.56-4.2h0c1-.85,2.07-1.62,3.2-2.29,1.66,.68,7.28-.41,7.28-.41,13.79,6.79,25.18-1.9,25.18-1.9l1.25,9,.68,4.65Z" fill="#f69074"></path>
    <path d="M437.33,588.09c-11.38,0-17.17-4.53-17.26-4.6-1.09-.87-1.99-2-2.59-3.26-.55-1.2-.62-2.54-.2-3.79,1.87-5.59,12.85-9.17,13.32-9.32,2.08-1.1,4.19-2.39,6.19-3.8,.87-.59,1.78-1.23,2.71-1.92,2.2-1.59,4.17-3.13,5.48-4.15,.44-.34,.81-.63,1.08-.84l.6-.5c.3-.36,.62-.74,.97-1.09,2-2.29,3.98-4.42,5.87-6.29,1.84-1.82,3.35-3.16,4.58-4.22,1.02-.87,2.12-1.66,3.27-2.34l.21-.13,.23,.09c1.25,.51,5.47-.14,7-.44l.17-.03,.15,.07c13.34,6.57,24.54-1.76,24.66-1.85l.68-.52,2.07,14.65-.07,.14c-6.2,12.09-33.41,27.56-34.57,28.21-9.95,4.49-18.14,5.94-24.56,5.94Zm24.35-45.16c-1.03,.63-2.02,1.34-2.94,2.12-1.22,1.05-2.71,2.38-4.53,4.17-1.87,1.86-3.84,3.97-5.85,6.26-.35,.35-.66,.71-.97,1.08l-.09,.09-.62,.52c-.29,.22-.66,.51-1.09,.85-1.31,1.02-3.29,2.57-5.5,4.17-.94,.69-1.86,1.35-2.73,1.94-2.03,1.43-4.18,2.74-6.38,3.9-.19,.07-11.05,3.6-12.76,8.72-.34,1-.28,2.08,.16,3.04,.53,1.12,1.33,2.13,2.31,2.91,.14,.11,13.81,10.72,40.74-1.45,.24-.14,27.85-15.82,34.06-27.63l-.66-4.49-1.14-8.21c-2.69,1.73-12.95,7.34-24.87,1.56-1.02,.19-5.33,.94-7.15,.44Z" fill="#002346"></path>
  </g>
  <g>
    <path d="M498.35,556.22c.82,2.73-.12,5.69-2.36,7.45l-19.11,15.44s-16.89,12.88-39.63,12.88h-.9c-21.75-.31-18.42-12-18.42-12,.57,1.2,1.41,2.26,2.45,3.09,0,0,13.68,11.08,41.26-1.38,0,0,28.17-15.89,34.37-28,1.19,.34,2.09,1.31,2.34,2.52Z" fill="#fff"></path>
    <path d="M437.25,592.49h-.9c-8.79-.12-14.65-2.08-17.43-5.83-2.44-3.28-1.51-6.67-1.47-6.81l.36-1.27,.57,1.2c.54,1.13,1.34,2.13,2.31,2.91,.14,.11,13.81,10.72,40.74-1.45,.24-.14,28.07-15.93,34.13-27.77l.19-.36,.39,.11c1.37,.38,2.4,1.49,2.69,2.88,.87,2.94-.12,6.07-2.54,7.97l-19.1,15.43c-.18,.14-17.3,12.99-39.94,12.99Zm-19-10.96c-.01,1.16,.24,2.89,1.49,4.55,2.56,3.42,8.3,5.29,16.62,5.41h.89c22.3,0,39.16-12.65,39.33-12.78l19.1-15.43c2.1-1.65,2.96-4.37,2.2-6.92v-.04c-.19-.9-.8-1.64-1.62-2-6.57,12.04-33.22,27.17-34.36,27.82-27.58,12.46-41.68,1.45-41.82,1.33-.69-.55-1.3-1.21-1.81-1.94Z" fill="#002346"></path>
  </g>
  <g>
    <polygon points="424.25 286.61 461.61 380.83 563.95 414.94 533.39 320.84 424.25 286.61" fill="#fff"></polygon>
    <path d="M564.73,415.73l-.94-.31-102.56-34.18-.09-.22-37.75-95.2,110.39,34.62,.08,.25,30.87,95.04Zm-102.74-35.3l101.18,33.72-30.17-92.91-107.89-33.84,36.89,93.03Z" fill="#002346"></path>
  </g>
  <g>
    <polygon points="424.25 286.61 429.12 284.99 536.33 317.48 533.39 320.84 424.25 286.61" fill="#e6e7e8"></polygon>
    <path d="M533.55,321.41l-.31-.1-110.62-34.69,6.49-2.16,108.1,32.76-3.67,4.19Zm-107.67-34.82l107.35,33.67,2.21-2.53-106.32-32.22-3.25,1.08Z" fill="#002346"></path>
  </g>
  <g>
    <path d="M563.95,414.94l10.12-3.95-37.46-92.82c-.13-.32-.55-.39-.77-.13l-2.45,2.8,30.56,94.1Z" fill="#e6e7e8"></path>
    <path d="M563.64,415.6l-.16-.5-30.65-94.37,2.63-3.01c.22-.25,.55-.36,.88-.31,.33,.06,.6,.28,.73,.59l37.65,93.29-11.08,4.33Zm-29.69-94.65l30.31,93.33,9.16-3.57-37.27-92.35-2.2,2.59Z" fill="#002346"></path>
  </g>
  <g>
    <polygon points="572.91 408.34 630.54 397.07 565.57 366.21 556.74 367.55 572.91 408.34" fill="#fff"></polygon>
    <path d="M572.6,408.91l-16.55-41.76,9.6-1.46,.14,.07,66.34,31.51-59.53,11.64Zm-15.16-40.96l15.79,39.82,55.73-10.9-63.46-30.14-8.06,1.22Z" fill="#002346"></path>
  </g>
  <g>
    <polygon points="574.07 410.99 634.84 400.56 630.54 397.07 572.91 408.34 574.07 410.99" fill="#e6e7e8"></polygon>
    <path d="M573.77,411.55l-1.57-3.58,.61-.12,57.86-11.32,5.34,4.33-62.24,10.68Zm-.15-2.84l.75,1.72,59.3-10.18-3.26-2.65-56.79,11.11Z" fill="#002346"></path>
  </g>
  <g>
    <path d="M613.73,392.26c-4.46,1.26-9.02,2.14-13.63,2.62-7.44,.77-14.92,1.04-22.4,.83-2.41-.06-4.32-2.07-4.25-4.48,.03-1.25,.6-2.43,1.56-3.24,2.93-2.21,6.11-4.07,9.48-5.54h0c4.64-2.08,9.4-3.9,14.25-5.44,19.21,4.25,14.99,15.25,14.99,15.25Z" fill="#f2b3c1"></path>
    <path d="M582.55,396.27c-1.62,0-3.24-.02-4.86-.07-2.68-.07-4.8-2.31-4.73-4.99,.04-1.39,.67-2.71,1.74-3.6,2.98-2.25,6.2-4.13,9.6-5.61,4.64-2.08,9.45-3.92,14.3-5.46l.13-.04,.13,.03c7.53,1.67,12.44,4.55,14.6,8.57,2.05,3.82,.8,7.2,.74,7.34l-.09,.23-.24,.07c-4.47,1.27-9.08,2.15-13.71,2.64-5.82,.6-11.72,.9-17.6,.9Zm16.21-18.75c-4.77,1.52-9.5,3.33-14.07,5.38-3.33,1.45-6.49,3.3-9.39,5.48-.83,.7-1.34,1.75-1.37,2.86-.06,2.14,1.64,3.92,3.78,3.98,7.44,.21,14.95-.07,22.34-.83,4.49-.47,8.96-1.32,13.29-2.53,.22-.78,.79-3.43-.77-6.31-2.01-3.72-6.66-6.42-13.81-8.03Z" fill="#002346"></path>
  </g>
  <g>
    <rect x="591.38" y="140.23" width="73" height="101" rx="36.5" ry="36.5" fill="#f2b3c1"></rect>
    <path d="M627.88,241.72c-20.4,0-36.99-16.59-36.99-36.99v-28c0-20.4,16.59-36.99,36.99-36.99s36.99,16.59,36.99,36.99v28c0,20.4-16.59,36.99-36.99,36.99Zm0-101c-19.86,0-36.01,16.15-36.01,36.01v28c0,19.86,16.15,36.01,36.01,36.01s36.01-16.15,36.01-36.01v-28c0-19.86-16.15-36.01-36.01-36.01Z" fill="#002346"></path>
  </g>
  <g>
    <path d="M664.66,221.64s-1.74-13.11-.87-18.75c-2.38-1.35-4.11-3.59-4.82-6.23-4.06-12-7.31-9.13-7.31-9.13-35.74,13-47.11-29.24-47.11-29.24-.82-2.49-2-2.52-3-2-.04,.01-.07,.04-.1,.07-.55,.37-1.03,.84-1.42,1.38l-.13,.17c-11.12,20.8-8.81,38.32-8.81,38.32,0,0-10.92-.63-9.3-23.37,0,0,1.63-24.37,19.5-26,0,0,3.24-26.22,56.85-14.73,0,0,24.36,6.61,29.24,42.34,.02,.06,6.51,45.55-22.72,47.17Z" fill="#002346"></path>
    <path d="M664.23,222.16l-.06-.46c-.07-.53-1.67-12.75-.92-18.55-2.33-1.42-4.05-3.72-4.76-6.36-2.42-7.15-4.47-8.71-5.47-9-.64-.19-1.01,.11-1.03,.12l-.15,.09c-9.83,3.58-18.76,3.33-26.54-.71-15.47-8.04-21.17-28.66-21.23-28.87-.33-1-.76-1.64-1.22-1.83-.29-.12-.63-.07-1.05,.14l-.06,.05c-.5,.34-.94,.76-1.29,1.26l-.14,.18c-10.86,20.33-8.74,37.78-8.71,37.95l.08,.6-.6-.04c-.12,0-2.86-.2-5.45-3.14-2.45-2.79-5.18-8.65-4.32-20.76,.02-.24,1.84-24.46,19.57-26.42,.3-1.5,1.77-6.87,8.05-11.34,6.9-4.91,21.05-9.48,49.33-3.42,.27,.07,24.76,7.12,29.63,42.76,.04,.1,3.51,24.15-5.95,38.13-4.03,5.96-9.83,9.19-17.24,9.6l-.46,.03Zm-11.62-35.43c.2,0,.41,.02,.63,.08,2.14,.57,4.23,3.83,6.21,9.68,.68,2.52,2.35,4.68,4.59,5.95l.3,.17-.05,.34c-.76,4.91,.52,15.77,.81,18.14,6.18-.45,11.16-2.99,14.83-7.54,10.57-13.13,7-38.76,6.96-39.01-4.78-34.98-28.64-41.88-28.88-41.94-27.86-5.97-41.75-1.53-48.48,3.24-6.88,4.88-7.73,11.01-7.74,11.07l-.05,.4-.4,.04c-17.24,1.57-19.03,25.3-19.05,25.54-.84,11.73,1.74,17.35,4.04,20,1.63,1.87,3.32,2.51,4.2,2.73-.28-3.43-.92-19.52,8.93-37.95l.17-.24c.41-.57,.91-1.06,1.5-1.46,.07-.07,.16-.12,.26-.16,.62-.33,1.26-.39,1.84-.16,.77,.31,1.36,1.12,1.8,2.47,.06,.23,5.66,20.43,20.73,28.27,7.5,3.9,16.13,4.13,25.66,.68,.23-.17,.65-.36,1.19-.36Z" fill="#002346"></path>
  </g>
  <path d="M565.57,366.71c-.11,0-.21-.03-.3-.1-.22-.17-.26-.48-.1-.7,23.8-31.5,22.31-75.68,22.29-76.12-.01-.28,.2-.51,.48-.52,.27,.01,.51,.2,.52,.48,.02,.45,1.53,44.97-22.49,76.76-.1,.13-.25,.2-.4,.2Z" fill="#002346"></path>
  <path d="M598.74,377.51c-.23,0-.44-.16-.49-.39-.06-.27,.11-.54,.38-.59l43.8-9.48c3.51-.76,6.21-3.53,6.88-7.06l11.93-62.71c.05-.27,.31-.45,.58-.4,.27,.05,.45,.31,.4,.58l-11.93,62.71c-.75,3.92-3.75,7-7.65,7.85l-43.8,9.48s-.07,.01-.11,.01Z" fill="#002346"></path>
  <path d="M474.61,428.43c-.07,0-.14-.01-.2-.04-.12-.05-11.84-5.4-16.67-17.21-.1-.26,.02-.55,.27-.65,.26-.1,.55,.02,.65,.27,4.68,11.43,16.04,16.62,16.16,16.67,.25,.11,.37,.41,.25,.66-.08,.19-.27,.3-.46,.3Z" fill="#002346"></path>
  <path d="M455.07,527.53c-.23,0-.44-.17-.49-.41-.05-.27,.13-.53,.4-.58,.14-.03,14.26-2.85,32.52-16.17,.22-.16,.54-.11,.7,.11,.16,.22,.11,.54-.11,.7-18.46,13.46-32.78,16.31-32.93,16.34-.03,0-.06,0-.09,0Z" fill="#002346"></path>
  <path d="M530.91,558.2c-13.69,0-25.56-4.67-25.71-4.73-.26-.1-.38-.39-.28-.65,.1-.26,.39-.38,.65-.28,.17,.07,17.16,6.74,33.77,3.99,.28-.05,.53,.14,.58,.41,.04,.27-.14,.53-.41,.58-2.89,.48-5.78,.68-8.6,.68Z" fill="#002346"></path>
  <path d="M455.19,574.17h0c-.28,0-.5-.23-.49-.51,.08-4.26-1.1-7.35-3.51-9.19-4.72-3.61-12.71-1.32-12.79-1.3-.26,.08-.54-.07-.62-.34-.08-.26,.07-.54,.34-.62,.35-.1,8.54-2.45,13.67,1.46,2.68,2.05,4,5.41,3.91,10.01,0,.27-.23,.49-.5,.49Z" fill="#002346"></path>
  <path d="M465.17,567.25c-.21,0-.4-.13-.47-.33-1.86-5.19-4.62-8.61-8.21-10.16-4.71-2.04-9.25-.1-9.3-.08-.25,.11-.55,0-.66-.26-.11-.25,0-.55,.26-.66,.2-.09,4.99-2.13,10.09,.08,3.86,1.67,6.8,5.28,8.75,10.74,.09,.26-.04,.55-.3,.64-.06,.02-.11,.03-.17,.03Z" fill="#002346"></path>
  <path d="M471.62,557.52c-.23,0-.43-.15-.49-.38-1.44-5.97-3.81-9.65-7.05-10.93-3.85-1.53-7.69,.94-7.73,.97-.23,.15-.54,.09-.69-.14-.15-.23-.09-.54,.14-.69,.17-.11,4.29-2.78,8.63-1.07,3.57,1.41,6.15,5.32,7.67,11.63,.06,.27-.1,.54-.37,.6-.04,0-.08,.01-.12,.01Z" fill="#002346"></path>
  <path d="M496.84,590.01s-.1,0-.15-.02c-18.79-5.79-13.42-26.06-13.36-26.27,2.13-8.35,.91-11.73-.48-13.09-1.62-1.59-4-.94-4.02-.94-.26,.08-.54-.08-.62-.35-.08-.26,.08-.54,.34-.62,.12-.04,2.94-.81,4.98,1.18,2.31,2.25,2.57,6.98,.76,14.07-.22,.81-5.16,19.55,12.69,25.05,.26,.08,.41,.36,.33,.62-.07,.21-.26,.35-.48,.35Z" fill="#002346"></path>
  <path d="M517.18,607.74c-.21,0-.4-.13-.47-.33-3.51-9.95-13.91-8.06-14.35-7.97-2.11,.23-3.48,.91-4.11,2.05-1.01,1.83,.18,4.3,.19,4.32,.12,.25,.02,.55-.23,.67-.25,.12-.55,.02-.67-.23-.06-.12-1.43-2.96-.17-5.24,.79-1.44,2.42-2.3,4.84-2.56,.07-.02,11.64-2.14,15.44,8.63,.09,.26-.04,.55-.31,.64-.05,.02-.11,.03-.17,.03Z" fill="#002346"></path>
  <path d="M520.68,596.89s-.04,0-.06,0c-.27-.03-.47-.28-.44-.55,.33-3.05-.33-5.42-1.99-7.05-3.35-3.3-9.69-2.56-9.75-2.56-2.99,0-4.89,.73-5.71,2.17-1.53,2.69,1.05,7.11,1.08,7.16,.14,.24,.06,.54-.17,.69-.24,.14-.54,.06-.68-.17-.12-.2-2.91-4.96-1.09-8.16,1.01-1.78,3.21-2.68,6.52-2.68,.22-.03,6.82-.8,10.52,2.84,1.88,1.85,2.65,4.5,2.28,7.87-.03,.26-.25,.45-.5,.45Z" fill="#002346"></path>
  <path d="M553.39,617.08c-4.37,0-8.19-1.24-11.4-3.71-7.61-5.87-9.05-16.46-9.11-16.91-1.64-7.19-3.92-9.29-5.54-9.77-1.98-.59-3.64,.98-3.66,.99-.2,.19-.52,.18-.71-.01-.19-.2-.18-.52,.01-.71,.08-.08,2.12-1.99,4.63-1.23,2.72,.82,4.82,4.37,6.23,10.55,.02,.1,.77,5.68,3.95,10.85,4.22,6.86,10.51,9.8,18.71,8.74,.27-.04,.52,.16,.56,.43,.04,.27-.16,.52-.43,.56-1.12,.14-2.21,.22-3.26,.22Z" fill="#002346"></path>
  <path d="M393.85,64.89H230.6c-.34,0-.62-.28-.62-.62s.28-.62,.62-.62h163.25c.34,0,.62,.28,.62,.62s-.28,.62-.62,.62Z" fill="#002346"></path>
  <path d="M393.85,84.87H230.6c-.34,0-.62-.28-.62-.62s.28-.62,.62-.62h163.25c.34,0,.62,.28,.62,.62s-.28,.62-.62,.62Z" fill="#002346"></path>
  <path d="M346.62,122h-104.82c-.34,0-.62-.28-.62-.62s.28-.62,.62-.62h104.82c.34,0,.62,.28,.62,.62s-.28,.62-.62,.62Z" fill="#002346"></path>
  <path d="M347.87,139.48h-104.82c-.34,0-.62-.28-.62-.62s.28-.62,.62-.62h104.82c.34,0,.62,.28,.62,.62s-.28,.62-.62,.62Z" fill="#002346"></path>
  <path d="M347.87,156.96h-104.82c-.34,0-.62-.28-.62-.62s.28-.62,.62-.62h104.82c.34,0,.62,.28,.62,.62s-.28,.62-.62,.62Z" fill="#002346"></path>
  <path d="M347.87,174.45h-104.82c-.34,0-.62-.28-.62-.62s.28-.62,.62-.62h104.82c.34,0,.62,.28,.62,.62s-.28,.62-.62,.62Z" fill="#002346"></path>
  <path d="M347.3,269.7H153.86c-1.75,0-3.18-1.43-3.18-3.18v-64.82c0-1.75,1.43-3.18,3.18-3.18h193.44c1.75,0,3.18,1.43,3.18,3.18v64.82c0,1.75-1.43,3.18-3.18,3.18Zm-193.44-69.93c-1.06,0-1.93,.87-1.93,1.93v64.82c0,1.06,.87,1.93,1.93,1.93h193.44c1.06,0,1.93-.87,1.93-1.93v-64.82c0-1.06-.87-1.93-1.93-1.93H153.86Z" fill="#002346"></path>
  <g>
    <path d="M331.17,215.38H171.25c-.34,0-.62-.28-.62-.62s.28-.62,.62-.62h159.92c.34,0,.62,.28,.62,.62s-.28,.62-.62,.62Z" fill="#002346"></path>
    <path d="M331.17,234.11H171.25c-.34,0-.62-.28-.62-.62s.28-.62,.62-.62h159.92c.34,0,.62,.28,.62,.62s-.28,.62-.62,.62Z" fill="#002346"></path>
    <path d="M329.92,254.09H170c-.34,0-.62-.28-.62-.62s.28-.62,.62-.62h159.92c.34,0,.62,.28,.62,.62s-.28,.62-.62,.62Z" fill="#002346"></path>
  </g>
  <path d="M327.11,346.49c-.34,0-.62-.28-.62-.62s.28-.62,.62-.62h9.95c.34,0,.64,.28,.64,.62s-.26,.62-.6,.62v0s-9.99,0-9.99,0Zm-9.96,0h-9.95c-.34,0-.62-.28-.62-.62s.28-.62,.62-.62h9.95c.34,0,.62,.28,.62,.62s-.28,.62-.62,.62Zm-19.91,0h-9.95c-.34,0-.62-.28-.62-.62s.28-.62,.62-.62h9.95c.34,0,.62,.28,.62,.62s-.28,.62-.62,.62Zm-19.91,0h-9.95c-.34,0-.62-.28-.62-.62s.28-.62,.62-.62h9.95c.34,0,.62,.28,.62,.62s-.28,.62-.62,.62Zm-14.27-7.11c-.34,0-.62-.28-.62-.62v-9.96c0-.34,.28-.62,.62-.62s.62,.28,.62,.62v9.96c0,.34-.28,.62-.62,.62Zm77.42-.92c-.34,0-.62-.28-.62-.62v-9.96c0-.34,.28-.62,.62-.62s.62,.28,.62,.62v9.96c0,.34-.28,.62-.62,.62Zm-77.42-18.98c-.34,0-.62-.28-.62-.62v-9.96c0-.34,.28-.62,.62-.62s.62,.28,.62,.62v9.96c0,.34-.28,.62-.62,.62Zm77.42-.92c-.34,0-.62-.28-.62-.62v-9.96c0-.34,.28-.62,.62-.62s.62,.28,.62,.62v9.96c0,.34-.28,.62-.62,.62Zm-77.42-18.98c-.34,0-.62-.28-.62-.62v-4.59c0-2.22,1.81-4.04,4.03-4.05h0c.34,0,.62,.28,.62,.62,0,.34-.28,.63-.62,.63-1.54,0-2.79,1.27-2.79,2.8v4.59c0,.34-.28,.62-.62,.62Zm77.42-.92c-.34,0-.62-.28-.62-.62v-3.66c0-1.54-1.26-2.8-2.8-2.8h-.91c-.34,0-.62-.28-.62-.62s.28-.62,.62-.62h.91c2.23,0,4.05,1.82,4.05,4.05v3.66c0,.34-.28,.62-.62,.62Zm-14.29-7.09h-9.96c-.34,0-.62-.28-.62-.62s.28-.62,.62-.62h9.96c.34,0,.62,.28,.62,.62s-.28,.62-.62,.62Zm-19.91,0h-9.96c-.34,0-.62-.28-.62-.62s.28-.62,.62-.62h9.96c.34,0,.62,.28,.62,.62s-.28,.62-.62,.62Zm-19.91,0h-9.95c-.34,0-.62-.28-.62-.62s.28-.62,.62-.62h9.95c.34,0,.62,.28,.62,.62s-.28,.62-.62,.62Z" fill="#002346"></path>
  <g>
    <rect x="289.5" y="299.72" width="84.03" height="63.47" fill="#fbe493"></rect>
    <path d="M374.16,363.82h-85.28v-64.72h85.28v64.72Zm-84.03-1.25h82.78v-62.23h-82.78v62.23Z" fill="#002346"></path>
  </g>
  <g>
    <rect x="295.07" y="305.25" width="72.89" height="52.4" fill="#fff"></rect>
    <path d="M368.56,358.26h-74.09v-53.61h74.09v53.61Zm-72.89-1.2h71.69v-51.2h-71.69v51.2Z" fill="#002346"></path>
  </g>
  <g>
    <path d="M305.66,357.66l18.27-36.35c.44-.87,1.68-.89,2.14-.03l11.28,21.06c.3,.55,1.1,.53,1.37-.04l4.91-10.47c.42-.89,1.66-.93,2.14-.08l14.56,25.91h-54.67Z" fill="#fbe493"></path>
    <path d="M361.32,358.24h-56.62l18.7-37.2c.3-.6,.91-.98,1.58-.99,.67-.05,1.28,.35,1.6,.94l11.28,21.07c.05,.09,.12,.12,.17,.09,.05,0,.12-.02,.16-.1l4.91-10.47c.29-.61,.88-1,1.55-1.03,.64-.04,1.29,.32,1.62,.91l15.05,26.78Zm-54.72-1.17h52.73l-14.07-25.04c-.12-.21-.36-.32-.56-.32-.24,0-.44,.14-.54,.36l-4.91,10.47c-.22,.46-.67,.76-1.19,.78-.5,0-.98-.26-1.22-.71l-11.28-21.06c-.11-.21-.31-.33-.55-.33h0c-.24,0-.44,.13-.55,.34l-17.85,35.51Z" fill="#002346"></path>
  </g>
  <g>
    <ellipse cx="339.42" cy="317.36" rx="3.52" ry="3.75" fill="#f69074"></ellipse>
    <path d="M339.42,321.69c-2.26,0-4.1-1.94-4.1-4.33s1.84-4.33,4.1-4.33,4.1,1.94,4.1,4.33-1.84,4.33-4.1,4.33Zm0-7.5c-1.62,0-2.93,1.42-2.93,3.17s1.32,3.17,2.93,3.17,2.93-1.42,2.93-3.17-1.32-3.17-2.93-3.17Z" fill="#002346"></path>
  </g>
  <path d="M254.83,293.14h-104.33c-.34,0-.62-.28-.62-.62s.28-.62,.62-.62h104.33c.34,0,.62,.28,.62,.62s-.28,.62-.62,.62Z" fill="#002346"></path>
  <path d="M254.83,309.79h-104.33c-.34,0-.62-.28-.62-.62s.28-.62,.62-.62h104.33c.34,0,.62,.28,.62,.62s-.28,.62-.62,.62Z" fill="#002346"></path>
  <path d="M254.83,326.44h-104.33c-.34,0-.62-.28-.62-.62s.28-.62,.62-.62h104.33c.34,0,.62,.28,.62,.62s-.28,.62-.62,.62Z" fill="#002346"></path>
  <path d="M254.83,343.09h-104.33c-.34,0-.62-.28-.62-.62s.28-.62,.62-.62h104.33c.34,0,.62,.28,.62,.62s-.28,.62-.62,.62Z" fill="#002346"></path>
  <g>
    <ellipse cx="628.36" cy="170.25" rx="41.5" ry="25.5" fill="#002346"></ellipse>
    <path d="M628.36,196.26c-23.16,0-42-11.66-42-26s18.84-26,42-26,42,11.66,42,26-18.84,26-42,26Zm0-51c-22.61,0-41,11.21-41,25s18.39,25,41,25,41-11.21,41-25-18.39-25-41-25Z" fill="#002346"></path>
  </g>
  <g>
    <ellipse cx="664.09" cy="194.59" rx="8.93" ry="12.18" fill="#f2b3c1"></ellipse>
    <path d="M664.09,207.26c-5.2,0-9.42-5.68-9.42-12.67s4.23-12.67,9.42-12.67,9.42,5.68,9.42,12.67-4.23,12.67-9.42,12.67Zm0-24.36c-4.65,0-8.44,5.24-8.44,11.69s3.79,11.69,8.44,11.69,8.44-5.24,8.44-11.69-3.79-11.69-8.44-11.69Z" fill="#002346"></path>
  </g>
</svg>
