<svg width="21" height="21" viewBox="0 0 21 21" fill="none" xmlns="http://www.w3.org/2000/svg">
<path d="M4.64554 9.56023L6.29596 7.9098L10.8346 12.4485L13.7228 9.56023L16.1985 12.0359V4.52603H4.64554V9.56023ZM4.64554 11.8942V16.079H7.2041L9.6676 13.6155L6.29596 10.2438L4.64554 11.8942ZM9.53813 16.079H16.1985V14.3699L13.7228 11.8942L9.53813 16.079ZM3.82033 2.87561H17.0237C17.4795 2.87561 17.8489 3.24507 17.8489 3.70082V16.9042C17.8489 17.3599 17.4795 17.7294 17.0237 17.7294H3.82033C3.36458 17.7294 2.99512 17.3599 2.99512 16.9042V3.70082C2.99512 3.24507 3.36458 2.87561 3.82033 2.87561ZM13.3102 8.65208C12.6266 8.65208 12.0724 8.09789 12.0724 7.41427C12.0724 6.73064 12.6266 6.17645 13.3102 6.17645C13.9938 6.17645 14.5481 6.73064 14.5481 7.41427C14.5481 8.09789 13.9938 8.65208 13.3102 8.65208Z" fill="#A4ABB8"/>
</svg>
