<svg width="11" height="10" viewBox="0 0 11 10" fill="none" xmlns="http://www.w3.org/2000/svg">
<g clip-path="url(#clip0_56_5886)">
<rect x="0.132812" y="0.0874023" width="9.90252" height="9.90252" fill="white"/>
<path d="M4.29631 7.6175C3.86697 7.62082 3.48237 7.35252 3.33727 6.94843C3.19216 6.54433 3.31822 6.09267 3.65162 5.82212C3.41514 5.63073 3.27775 5.34278 3.27775 5.03856C3.27775 4.73434 3.41514 4.44639 3.65162 4.255C3.31811 3.98454 3.19198 3.53284 3.33711 3.12873C3.48224 2.72462 3.86694 2.45638 4.29631 2.45987H5.87195C6.30132 2.45638 6.68602 2.72462 6.83115 3.12873C6.97628 3.53284 6.85015 3.98454 6.51664 4.255C6.85004 4.52554 6.9761 4.97721 6.831 5.3813C6.68589 5.7854 6.30129 6.0537 5.87195 6.05034C5.67364 6.05059 5.47958 5.99286 5.31364 5.88427V6.60633C5.31123 7.16618 4.85617 7.61847 4.29631 7.6175ZM4.29064 6.0506C3.98519 6.05543 3.74102 6.3061 3.74423 6.61157C3.74743 6.91703 3.9968 7.16253 4.30228 7.16096C4.60776 7.15937 4.85458 6.9113 4.85462 6.60581V6.0506H4.29038H4.29064ZM5.87221 4.48348C5.56594 4.48504 5.31879 4.73431 5.31983 5.04057C5.32088 5.34683 5.56972 5.59441 5.87598 5.59389C6.18225 5.59337 6.43025 5.34495 6.43025 5.03869C6.42912 4.73132 6.17932 4.48291 5.87195 4.48348H5.87221ZM4.29657 4.48347C4.09821 4.48242 3.91436 4.58726 3.81426 4.75851C3.71416 4.92977 3.71303 5.14141 3.81129 5.31373C3.90956 5.48604 4.09228 5.59284 4.29064 5.5939H4.85462V4.48347H4.29657ZM5.31364 2.91635V4.02704H5.87169C6.17019 4.02842 6.41646 3.79376 6.42948 3.49555V3.60772V3.47156C6.4282 3.16455 6.17896 2.91635 5.87195 2.91635H5.31364ZM4.29605 2.91635C4.0977 2.91635 3.91441 3.02217 3.81523 3.19396C3.71605 3.36574 3.71605 3.57739 3.81523 3.74917C3.91441 3.92095 4.0977 4.02677 4.29605 4.02677H4.85462V2.91635H4.29605Z" fill="#A4ABB8"/>
</g>
<defs>
<clipPath id="clip0_56_5886">
<rect x="0.132812" y="0.0874023" width="9.90252" height="9.90252" rx="4.95126" fill="white"/>
</clipPath>
</defs>
</svg>
