<svg width="11" height="11" viewBox="0 0 11 11" fill="none" xmlns="http://www.w3.org/2000/svg">
<path d="M8.32519 8.05081H7.22539V6.32744C7.22539 5.91649 7.21706 5.38765 6.65228 5.38765C6.07889 5.38765 5.99129 5.83483 5.99129 6.29712V8.05081H4.89149V4.50695H5.94797V4.98998H5.9622C6.10983 4.71148 6.4688 4.41751 7.00506 4.41751C8.11943 4.41751 8.32552 5.15094 8.32552 6.10559L8.32519 8.05081ZM3.64936 4.02203C3.29534 4.02203 3.01095 3.73548 3.01095 3.38301C3.01095 3.03085 3.29565 2.74461 3.64936 2.74461C4.00213 2.74461 4.28807 3.03085 4.28807 3.38301C4.28807 3.73548 4.00183 4.02203 3.64936 4.02203ZM4.2008 8.05081H3.09791V4.50695H4.2008V8.05081ZM8.8754 1.72186H2.54585C2.24289 1.72186 1.9978 1.96138 1.9978 2.25691V8.61373C1.9978 8.90953 2.24289 9.14875 2.54585 9.14875H8.87449C9.17714 9.14875 9.4247 8.90953 9.4247 8.61373V2.25691C9.4247 1.96138 9.17714 1.72186 8.87449 1.72186H8.8754Z" fill="#818898"/>
</svg>
