<svg width="11" height="11" viewBox="0 0 11 11" fill="none" xmlns="http://www.w3.org/2000/svg">
<path d="M5.4117 1.3092C7.69018 1.3092 9.53775 2.95046 9.53775 4.97681C9.53775 6.24215 8.51081 7.26904 7.24548 7.26904H6.43405C6.05354 7.26904 5.74636 7.57622 5.74636 7.95673C5.74636 8.13093 5.81514 8.29139 5.92056 8.41059C6.0306 8.53437 6.09938 8.69483 6.09938 8.87362C6.09938 9.25416 5.78304 9.56131 5.4117 9.56131C3.1332 9.56131 1.28564 7.71374 1.28564 5.43525C1.28564 3.15676 3.1332 1.3092 5.4117 1.3092ZM3.55497 5.43525C3.89679 5.43525 4.17388 5.15815 4.17388 4.81635C4.17388 4.47453 3.89679 4.19744 3.55497 4.19744C3.21316 4.19744 2.93606 4.47453 2.93606 4.81635C2.93606 5.15815 3.21316 5.43525 3.55497 5.43525ZM7.26842 5.43525C7.61022 5.43525 7.88733 5.15815 7.88733 4.81635C7.88733 4.47453 7.61022 4.19744 7.26842 4.19744C6.92662 4.19744 6.64951 4.47453 6.64951 4.81635C6.64951 5.15815 6.92662 5.43525 7.26842 5.43525ZM5.4117 4.19744C5.7535 4.19744 6.0306 3.92035 6.0306 3.57853C6.0306 3.23672 5.7535 2.95962 5.4117 2.95962C5.06989 2.95962 4.79279 3.23672 4.79279 3.57853C4.79279 3.92035 5.06989 4.19744 5.4117 4.19744Z" fill="#818898"/>
</svg>
